<svg width="261" height="11" viewBox="0 0 261 11" fill="none" xmlns="http://www.w3.org/2000/svg">
<path d="M128.061 11C127.989 11 127.921 11 127.849 10.9949C127.471 11 124.12 10.9434 121.828 6.82226C121.068 5.47942 120.044 4.21889 119.154 3.53975L119.02 3.43171C117.876 2.50561 116.356 2.22778 114.949 2.68054C113.604 3.11272 112.626 4.13143 112.269 5.46913C112.244 5.57203 112.218 5.68007 112.197 5.78812C112.011 6.75023 112.249 7.73807 112.875 8.56641C113.764 9.74976 114.949 10.2694 116.128 10.0019C117.189 9.76005 118.006 8.90084 118.213 7.82039C118.316 7.26987 118.176 6.68335 117.825 6.20486C117.297 5.48971 116.594 5.17072 115.906 5.32507C115.29 5.46398 114.809 5.96305 114.69 6.59074C114.566 7.23901 114.985 7.87184 115.621 7.99532L115.44 8.90598C114.302 8.68475 113.552 7.56828 113.775 6.41581C113.966 5.42282 114.721 4.64078 115.699 4.41955C116.754 4.18288 117.83 4.64593 118.575 5.65435C119.082 6.33863 119.283 7.18755 119.128 7.99017C118.849 9.43077 117.758 10.573 116.335 10.9022C114.809 11.2521 113.237 10.5884 112.13 9.12207C111.344 8.08278 111.044 6.83255 111.282 5.61319C111.307 5.48456 111.338 5.35594 111.369 5.23246C111.809 3.58606 113.009 2.33582 114.659 1.80589C116.366 1.25538 118.218 1.59495 119.604 2.7217L119.728 2.8246C120.716 3.58091 121.808 4.91347 122.64 6.37979C124.751 10.1665 127.813 10.0739 127.839 10.079H127.87H127.901C128.428 10.1202 128.94 9.95556 129.344 9.61085C129.763 9.25584 130.011 8.76192 130.058 8.21141C130.125 7.37277 129.509 6.6319 128.682 6.55987C128.392 6.529 128.082 6.65248 127.854 6.87371C127.513 7.20813 127.389 7.59915 127.518 7.94901C127.627 8.24742 127.896 8.45322 128.206 8.47895L128.134 9.3999C127.461 9.34845 126.877 8.90084 126.644 8.26286C126.39 7.56314 126.603 6.79654 127.208 6.21001C127.627 5.80355 128.211 5.58746 128.77 5.63891C130.099 5.75725 131.092 6.94574 130.989 8.28344C130.927 9.08091 130.559 9.80121 129.954 10.3157C129.416 10.7582 128.754 11 128.061 11Z" fill="#292444"/>
<path d="M132.991 11C132.303 11 131.641 10.7582 131.108 10.3054C130.503 9.79093 130.135 9.07063 130.073 8.27316C129.97 6.93032 130.963 5.74697 132.292 5.62863C132.851 5.57718 133.435 5.79327 133.854 6.19973C134.46 6.78625 134.672 7.55286 134.418 8.25258C134.185 8.89056 133.601 9.33817 132.928 9.38962L132.856 8.46867C133.166 8.44294 133.435 8.23714 133.544 7.93873C133.673 7.58887 133.549 7.19271 133.208 6.86343C132.98 6.6422 132.67 6.52386 132.38 6.54958C131.558 6.62161 130.942 7.36249 131.004 8.20113C131.046 8.75164 131.299 9.24556 131.718 9.60057C132.122 9.94528 132.634 10.1099 133.161 10.0688H133.192H133.223C133.347 10.0688 136.327 10.1356 138.422 6.37466C139.254 4.90319 140.346 3.57063 141.344 2.80917L141.458 2.71656C142.844 1.59495 144.696 1.25024 146.403 1.80075C148.053 2.33583 149.253 3.58092 149.693 5.22732C149.724 5.3508 149.755 5.47943 149.781 5.60805C150.018 6.83256 149.718 8.07765 148.932 9.11694C147.825 10.5833 146.253 11.247 144.727 10.8971C143.31 10.5678 142.213 9.42564 141.934 7.98504C141.779 7.18242 141.98 6.32835 142.487 5.64921C143.237 4.64079 144.313 4.17774 145.363 4.41441C146.341 4.63565 147.096 5.41769 147.287 6.41067C147.51 7.558 146.76 8.67447 145.622 8.90085L145.441 7.99018C146.082 7.8667 146.501 7.23387 146.372 6.5856C146.253 5.95277 145.772 5.45885 145.156 5.31993C144.468 5.16558 143.765 5.48457 143.237 6.19973C142.886 6.67307 142.746 7.26474 142.849 7.81525C143.056 8.8957 143.879 9.75492 144.939 9.99673C146.113 10.2694 147.298 9.74463 148.193 8.56128C148.818 7.73293 149.062 6.74509 148.87 5.78298C148.849 5.67494 148.824 5.56689 148.798 5.46399C148.441 4.12629 147.463 3.11273 146.118 2.68055C144.711 2.22779 143.191 2.50562 142.048 3.43172L141.923 3.52947C141.023 4.2189 139.994 5.47428 139.234 6.82227C136.942 10.9383 133.596 11.0052 133.213 10.9897C133.13 11 133.058 11 132.991 11Z" fill="#292444"/>
<path d="M130.528 5.83957C129.789 5.83957 129.194 5.34051 129.049 4.59963C128.718 2.89149 130.078 0.715154 130.135 0.622544L130.528 0L130.922 0.622544C130.978 0.715154 132.339 2.88634 132.008 4.59963C131.863 5.34051 131.268 5.83957 130.528 5.83957ZM129.959 4.41955C130.032 4.7797 130.296 4.90833 130.523 4.90833C130.751 4.90833 131.02 4.7797 131.087 4.41955C131.247 3.59121 130.854 2.53648 130.523 1.84191C130.197 2.53648 129.799 3.59121 129.959 4.41955Z" fill="#292444"/>
<path d="M257.022 7.02808C256.831 7.02808 256.64 7.01264 256.453 6.97663C255.719 6.82742 255.222 6.2306 255.222 5.48972C255.222 4.7437 255.719 4.14688 256.453 4.00282C258.15 3.66325 260.307 5.04211 260.4 5.10385L261 5.48972L260.4 5.8756C260.317 5.92705 258.6 7.02808 257.022 7.02808ZM256.64 4.90319C256.283 4.97522 256.159 5.24791 256.159 5.48458C256.159 5.72125 256.288 5.99393 256.64 6.06596C257.421 6.22031 258.465 5.83958 259.195 5.48458C258.46 5.12957 257.415 4.74884 256.64 4.90319Z" fill="#292444"/>
<path d="M253.485 5.95277C253.449 5.95277 253.412 5.95277 253.371 5.94762H253.366C253.076 5.94762 251.354 5.85501 250.185 3.75586C249.823 3.11788 249.337 2.52106 248.918 2.19692L248.845 2.14033C248.338 1.73387 247.666 1.61039 247.045 1.81105C246.455 2.00141 246.026 2.44388 245.871 3.03041C245.861 3.07672 245.845 3.12302 245.84 3.17447C245.757 3.58607 245.866 4.0131 246.135 4.36811C246.517 4.87746 247.019 5.10384 247.511 4.99065C247.945 4.88775 248.281 4.53789 248.369 4.09028C248.411 3.87934 248.354 3.65296 248.219 3.47288C248.012 3.18991 247.759 3.06643 247.505 3.12302C247.288 3.16933 247.123 3.34426 247.081 3.57064C247.045 3.76615 247.169 3.95651 247.361 3.99767L247.18 4.90833C246.486 4.77456 246.031 4.09543 246.166 3.40085C246.28 2.81432 246.724 2.35642 247.299 2.22779C247.914 2.08888 248.54 2.35127 248.969 2.92751C249.259 3.31853 249.373 3.80731 249.285 4.27035C249.13 5.07812 248.514 5.7161 247.723 5.90132C246.869 6.09683 246 5.73668 245.395 4.92891C244.971 4.36811 244.8 3.66325 244.93 2.99954C244.945 2.93266 244.961 2.86063 244.976 2.79374C245.214 1.91395 245.881 1.21423 246.766 0.931253C247.692 0.632843 248.69 0.818063 249.44 1.42517L249.502 1.47662C250.009 1.8625 250.578 2.55193 251.002 3.30824C251.659 4.49159 252.502 4.86203 252.983 4.97522C252.792 4.84659 252.642 4.66137 252.564 4.44014C252.404 4.00282 252.533 3.53462 252.9 3.17447C253.154 2.92751 253.516 2.79374 253.862 2.82461C254.649 2.89664 255.238 3.59636 255.176 4.38869C255.14 4.84659 254.928 5.25819 254.581 5.5566C254.266 5.81385 253.883 5.95277 253.485 5.95277ZM253.754 3.74042C253.681 3.74042 253.604 3.77644 253.547 3.83303C253.443 3.93078 253.407 4.03369 253.438 4.12115C253.454 4.16745 253.5 4.22405 253.578 4.22919L253.516 5.02667C253.681 5.02152 253.842 4.95978 253.976 4.84659C254.137 4.71282 254.23 4.52246 254.25 4.31151C254.271 4.0234 254.064 3.76615 253.78 3.74042C253.764 3.74557 253.759 3.74042 253.754 3.74042Z" fill="#292444"/>
<path d="M247.645 10.1871C247.35 10.1871 247.05 10.1408 246.76 10.0482C245.876 9.76522 245.208 9.0655 244.97 8.1857C244.95 8.11882 244.934 8.05193 244.924 7.9799C244.795 7.3162 244.965 6.61648 245.389 6.05568C245.995 5.25306 246.869 4.88776 247.717 5.08327C248.514 5.26849 249.124 5.90647 249.279 6.70909C249.367 7.17214 249.253 7.66091 248.964 8.05193C248.534 8.62817 247.914 8.89571 247.293 8.75165C246.719 8.62303 246.269 8.15998 246.16 7.57859C246.026 6.88402 246.481 6.20488 247.174 6.07111L247.355 6.98177C247.164 7.01779 247.039 7.20815 247.076 7.40881C247.117 7.63004 247.282 7.80497 247.5 7.85642C247.753 7.91302 248.007 7.78954 248.214 7.50656C248.348 7.32134 248.405 7.09496 248.364 6.88916C248.276 6.44155 247.939 6.09169 247.505 5.98879C247.019 5.8756 246.517 6.10198 246.129 6.61133C245.86 6.97148 245.751 7.39337 245.834 7.80497C245.845 7.85642 245.855 7.90273 245.865 7.94903C246.02 8.53556 246.45 8.97803 247.039 9.17354C247.66 9.3742 248.333 9.25072 248.839 8.83912L248.901 8.78767C249.331 8.45839 249.817 7.86157 250.179 7.21844C251.353 5.109 253.086 5.04726 253.365 5.03182C253.805 5.00095 254.229 5.14501 254.565 5.42799C254.912 5.72125 255.124 6.13799 255.16 6.5959C255.222 7.38823 254.633 8.08795 253.846 8.15998C253.5 8.19085 253.143 8.06222 252.884 7.81012C252.517 7.45511 252.393 6.98177 252.548 6.54445C252.631 6.31807 252.781 6.13285 252.972 6.00423C252.491 6.11741 251.648 6.48271 250.991 7.66606C250.562 8.42237 249.998 9.1118 249.476 9.50797L249.424 9.54913C248.922 9.97102 248.286 10.1871 247.645 10.1871ZM253.51 5.95277L253.572 6.75025C253.495 6.75539 253.448 6.81199 253.433 6.85829C253.402 6.94576 253.443 7.04866 253.541 7.14641C253.603 7.20815 253.696 7.24417 253.769 7.23388C254.048 7.20815 254.26 6.95605 254.24 6.66278C254.224 6.45184 254.126 6.26147 253.965 6.1277C253.836 6.01966 253.676 5.95792 253.51 5.95277Z" fill="#292444"/>
<path d="M247.122 5.02667H149.331V5.95277H247.122V5.02667Z" fill="#292444"/>
<path d="M3.97767 7.02805C2.40005 7.02805 0.682772 5.92702 0.600012 5.87557L0 5.48455L0.600012 5.09868C0.693117 5.04208 2.84488 3.65808 4.54664 3.99765C5.28114 4.14685 5.7777 4.74367 5.7777 5.48455C5.7777 6.23058 5.28114 6.8274 4.54664 6.97146C4.36043 7.01262 4.16905 7.02805 3.97767 7.02805ZM1.80521 5.48455C2.53453 5.83956 3.57938 6.22029 4.36043 6.06594C4.71734 5.99391 4.84148 5.72122 4.84148 5.48455C4.84148 5.24788 4.71216 4.9752 4.36043 4.90317C3.57938 4.74882 2.53453 5.12955 1.80521 5.48455Z" fill="#292444"/>
<path d="M7.51567 5.95275C7.11738 5.95275 6.73462 5.81384 6.42944 5.55144C6.08288 5.25818 5.87081 4.84143 5.8346 4.38353C5.77253 3.5912 6.3622 2.89148 7.14842 2.81945C7.49498 2.79372 7.85188 2.92235 8.11051 3.16931C8.47775 3.52431 8.60189 3.99765 8.44672 4.43498C8.36396 4.66136 8.21396 4.84658 8.02257 4.9752C8.50362 4.86201 9.34674 4.49672 10.0036 3.31337C10.433 2.55705 10.9968 1.86762 11.5192 1.47146L11.5709 1.4303C12.3209 0.82319 13.3192 0.63797 14.2451 0.93638C15.1296 1.21935 15.7969 1.91907 16.0348 2.79887C16.0503 2.86575 16.071 2.93264 16.0814 3.00467C16.2107 3.66837 16.04 4.37324 15.6158 4.93404C15.0106 5.73666 14.1365 6.10195 13.2882 5.90645C12.4916 5.72123 11.8813 5.08325 11.7261 4.27548C11.6382 3.81243 11.752 3.32366 12.0416 2.93264C12.4709 2.3564 13.0968 2.094 13.7123 2.23292C14.2917 2.36154 14.7365 2.82459 14.8451 3.40598C14.9796 4.10055 14.5244 4.77969 13.8313 4.91346L13.6503 4.0028C13.8417 3.96678 13.9658 3.77642 13.9296 3.57576C13.8882 3.35453 13.7227 3.1796 13.5054 3.12815C13.252 3.07155 12.9985 3.19503 12.7916 3.47801C12.6571 3.66323 12.6003 3.88961 12.6416 4.09541C12.7296 4.54302 13.0658 4.89288 13.5003 4.99578C13.9813 5.10897 14.483 4.88259 14.8658 4.37324C15.1348 4.01309 15.2434 3.5912 15.1606 3.1796C15.1503 3.13329 15.14 3.08184 15.1296 3.03554C14.9744 2.44901 14.5451 2.00654 13.9554 1.81617C13.3347 1.61552 12.6623 1.739 12.1554 2.14545L12.0933 2.1969C11.664 2.52618 11.1778 3.123 10.8157 3.76613C9.64157 5.87558 7.9243 5.96304 7.62946 5.95275C7.58808 5.95275 7.55187 5.95275 7.51567 5.95275ZM7.2467 3.7404C7.24152 3.7404 7.23635 3.7404 7.22601 3.7404C6.94669 3.76613 6.73462 4.01823 6.75531 4.3115C6.77082 4.52244 6.8691 4.71281 7.02945 4.84658C7.15876 4.95977 7.31911 5.02151 7.4898 5.02665L7.42773 4.22918C7.50532 4.22403 7.55187 4.16744 7.56739 4.12113C7.59843 4.03367 7.55705 3.93077 7.45877 3.83301C7.3967 3.77642 7.31911 3.7404 7.2467 3.7404Z" fill="#292444"/>
<path d="M13.3554 10.1871C12.714 10.1871 12.0778 9.971 11.5657 9.55425L11.5037 9.5028C10.9968 9.11693 10.4278 8.4275 10.0036 7.67118C9.34674 6.48783 8.50362 6.11739 8.02257 6.0042C8.21396 6.13283 8.36396 6.31805 8.44155 6.53928C8.60189 6.97661 8.47258 7.44995 8.10533 7.80495C7.84671 8.05191 7.4898 8.18568 7.14324 8.15481C6.35702 8.08278 5.76736 7.38306 5.82943 6.59073C5.86563 6.13283 6.07771 5.71608 6.42426 5.42282C6.76048 5.1347 7.18462 4.99579 7.62429 5.02666H7.62946C7.91912 5.02666 9.64157 5.11927 10.8106 7.21842C11.1726 7.8564 11.6589 8.45322 12.0778 8.77736L12.1502 8.83395C12.6571 9.24041 13.3296 9.36903 13.9503 9.16323C14.5399 8.97287 14.9693 8.52525 15.1244 7.94387C15.1348 7.89756 15.1503 7.85126 15.1555 7.79981C15.2331 7.38821 15.1296 6.96632 14.8606 6.60617C14.4779 6.09681 13.9761 5.86529 13.4847 5.98362C13.0503 6.08138 12.714 6.43638 12.6261 6.884C12.5847 7.09494 12.6416 7.32132 12.7761 7.5014C12.983 7.78437 13.2365 7.90785 13.4899 7.85126C13.7072 7.80495 13.8727 7.63002 13.9141 7.40364C13.9503 7.20813 13.8261 7.01777 13.6348 6.97661L13.8158 6.06594C14.5089 6.19971 14.9641 6.87885 14.8296 7.57343C14.7158 8.15481 14.271 8.61786 13.6968 8.74649C13.0813 8.8854 12.4554 8.62301 12.0261 8.04677C11.7364 7.65575 11.6226 7.16697 11.7106 6.70392C11.8658 5.89616 12.4813 5.25818 13.2727 5.07811C14.1261 4.8826 14.9951 5.24275 15.6003 6.05051C16.0245 6.61131 16.1951 7.31618 16.0658 7.97988C16.0503 8.05191 16.0348 8.1188 16.0193 8.18568C15.7813 9.07062 15.1141 9.7652 14.2296 10.0482C13.9503 10.1408 13.6503 10.1871 13.3554 10.1871ZM7.4898 5.95275C7.32428 5.9579 7.16393 6.01964 7.02945 6.13283C6.8691 6.2666 6.776 6.45696 6.75531 6.66791C6.73462 6.95603 6.94152 7.21328 7.22601 7.239C7.29842 7.24929 7.39153 7.20813 7.4536 7.15154C7.55705 7.05378 7.59325 6.95088 7.56222 6.86342C7.5467 6.81711 7.50015 6.76052 7.42256 6.75537L7.4898 5.95275Z" fill="#292444"/>
<path d="M111.669 5.02664H13.8779V5.95274H111.669V5.02664Z" fill="#292444"/>
</svg>
