<svg width="222" height="10" viewBox="0 0 222 10" fill="none" xmlns="http://www.w3.org/2000/svg">
<path d="M112.863 5.00001C112.863 5.92054 112.027 6.66799 110.998 6.66799C109.968 6.66799 109.132 5.92054 109.132 5.00001C109.132 4.07947 109.968 3.33203 110.998 3.33203C112.027 3.33203 112.863 4.07947 112.863 5.00001Z" fill="#292444"/>
<path d="M213.869 5C216.953 5 219.461 2.76161 219.461 0C219.461 1.49489 220.196 2.83635 221.358 3.75295C222.207 4.42172 222.207 5.57435 221.358 6.24312C220.196 7.15972 219.461 8.50118 219.461 9.99607C219.461 7.2384 216.958 5 213.869 5Z" fill="#292444"/>
<path d="M211.33 5.00001C211.33 5.92054 212.166 6.66799 213.196 6.66799C214.225 6.66799 215.061 5.92054 215.061 5.00001C215.061 4.07947 214.225 3.33203 213.196 3.33203C212.166 3.33203 211.33 4.07947 211.33 5.00001Z" fill="#292444"/>
<path d="M212.993 4.64594H109.819V5.35404H212.993V4.64594Z" fill="#292444"/>
<path d="M113.845 4.64594H10.6699V5.35404H113.845V4.64594Z" fill="#292444"/>
<path d="M2.53432 10C2.53432 8.50511 1.79953 7.16365 0.637936 6.24705C-0.215656 5.57829 -0.215656 4.42565 0.637936 3.75688C1.80393 2.83635 2.53432 1.49489 2.53432 0C2.53432 2.76161 5.0423 5 8.12667 5C5.0423 5 2.53432 7.2384 2.53432 10Z" fill="#292444"/>
<path d="M10.6699 5.00001C10.6699 5.92054 9.8339 6.66799 8.80431 6.66799C7.77472 6.66799 6.93873 5.92054 6.93873 5.00001C6.93873 4.07947 7.77472 3.33203 8.80431 3.33203C9.8339 3.33203 10.6699 4.07947 10.6699 5.00001Z" fill="#292444"/>
</svg>
