<svg width="13" height="14" viewBox="0 0 13 14" fill="none" xmlns="http://www.w3.org/2000/svg">
<path d="M12.6499 5.58318L7.23328 0.299135C7.23063 0.296746 7.22814 0.294173 7.22583 0.291434C7.0264 0.103912 6.76652 0 6.49695 0C6.22739 0 5.9675 0.103912 5.76807 0.291434L5.76063 0.299135L0.350052 5.58318C0.239686 5.68811 0.151588 5.81559 0.0913328 5.95754C0.0310776 6.09949 -2.2779e-05 6.25283 1.25178e-08 6.40785V12.8799C1.25178e-08 13.177 0.114137 13.4619 0.317301 13.6719C0.520465 13.882 0.796016 14 1.08333 14H4.33333C4.62065 14 4.8962 13.882 5.09937 13.6719C5.30253 13.4619 5.41667 13.177 5.41667 12.8799V9.51962H7.58333V12.8799C7.58333 13.177 7.69747 13.4619 7.90063 13.6719C8.1038 13.882 8.37935 14 8.66667 14H11.9167C12.204 14 12.4795 13.882 12.6827 13.6719C12.8859 13.4619 13 13.177 13 12.8799V6.40785C13 6.25283 12.9689 6.09949 12.9087 5.95754C12.8484 5.81559 12.7603 5.68811 12.6499 5.58318ZM11.9167 12.8799H8.66667V9.51962C8.66667 9.22255 8.55253 8.93765 8.34937 8.72759C8.1462 8.51753 7.87065 8.39952 7.58333 8.39952H5.41667C5.12935 8.39952 4.8538 8.51753 4.65063 8.72759C4.44747 8.93765 4.33333 9.22255 4.33333 9.51962V12.8799H1.08333V6.40785L1.09078 6.40085L6.5 1.1189L11.9099 6.39945L11.9173 6.40645L11.9167 12.8799Z" fill="white"/>
</svg>
