<svg width="13" height="13" viewBox="0 0 13 13" fill="none" xmlns="http://www.w3.org/2000/svg">
<path d="M6.09375 3.89661C5.53749 3.89661 4.99372 4.06156 4.53121 4.3706C4.0687 4.67964 3.70821 5.11889 3.49534 5.63281C3.28247 6.14673 3.22677 6.71223 3.33529 7.2578C3.44381 7.80337 3.71168 8.30451 4.10501 8.69784C4.49835 9.09118 4.99949 9.35904 5.54506 9.46757C6.09063 9.57609 6.65613 9.52039 7.17005 9.30752C7.68396 9.09465 8.12322 8.73416 8.43226 8.27165C8.7413 7.80913 8.90625 7.26537 8.90625 6.70911C8.90547 5.96342 8.60891 5.2485 8.08163 4.72123C7.55435 4.19395 6.83943 3.89738 6.09375 3.89661ZM6.09375 8.58411C5.72291 8.58411 5.3604 8.47414 5.05206 8.26811C4.74371 8.06208 4.50339 7.76925 4.36148 7.42664C4.21956 7.08403 4.18243 6.70703 4.25478 6.34331C4.32712 5.9796 4.5057 5.6455 4.76792 5.38328C5.03015 5.12106 5.36424 4.94248 5.72796 4.87013C6.09167 4.79779 6.46867 4.83492 6.81128 4.97683C7.15389 5.11875 7.44673 5.35907 7.65276 5.66741C7.85878 5.97575 7.96875 6.33827 7.96875 6.70911C7.96875 7.20639 7.77121 7.6833 7.41957 8.03493C7.06794 8.38656 6.59103 8.58411 6.09375 8.58411ZM8.90625 0.615356H3.28125C2.41129 0.616287 1.57724 0.962288 0.962084 1.57744C0.346932 2.19259 0.000930601 3.02665 0 3.89661V9.52161C0.000930601 10.3916 0.346932 11.2256 0.962084 11.8408C1.57724 12.4559 2.41129 12.8019 3.28125 12.8029H8.90625C9.77621 12.8019 10.6103 12.4559 11.2254 11.8408C11.8406 11.2256 12.1866 10.3916 12.1875 9.52161V3.89661C12.1866 3.02665 11.8406 2.19259 11.2254 1.57744C10.6103 0.962288 9.77621 0.616287 8.90625 0.615356ZM11.25 9.52161C11.25 10.1432 11.0031 10.7393 10.5635 11.1789C10.124 11.6184 9.52785 11.8654 8.90625 11.8654H3.28125C2.65965 11.8654 2.06351 11.6184 1.62397 11.1789C1.18443 10.7393 0.9375 10.1432 0.9375 9.52161V3.89661C0.9375 3.27501 1.18443 2.67886 1.62397 2.23932C2.06351 1.79979 2.65965 1.55286 3.28125 1.55286H8.90625C9.52785 1.55286 10.124 1.79979 10.5635 2.23932C11.0031 2.67886 11.25 3.27501 11.25 3.89661V9.52161ZM9.84375 3.66223C9.84375 3.8013 9.80251 3.93724 9.72525 4.05287C9.64799 4.16849 9.53818 4.25862 9.4097 4.31183C9.28122 4.36505 9.13984 4.37898 9.00345 4.35185C8.86706 4.32472 8.74177 4.25775 8.64344 4.15942C8.54511 4.06108 8.47814 3.9358 8.45101 3.7994C8.42388 3.66301 8.43781 3.52164 8.49102 3.39316C8.54424 3.26468 8.63436 3.15486 8.74999 3.0776C8.86562 3.00034 9.00156 2.95911 9.14062 2.95911C9.32711 2.95911 9.50595 3.03319 9.63781 3.16505C9.76967 3.29691 9.84375 3.47575 9.84375 3.66223Z" fill="white"/>
</svg>
