<svg width="14" height="14" viewBox="0 0 14 14" fill="none" xmlns="http://www.w3.org/2000/svg">
<path d="M12.1609 8.66579L9.58454 7.51134L9.57743 7.50806C9.44368 7.45085 9.29778 7.4279 9.15292 7.44126C9.00807 7.45463 8.86884 7.5039 8.74782 7.58462C8.73357 7.59403 8.71987 7.60426 8.7068 7.61525L7.37571 8.75001C6.53243 8.3404 5.6618 7.47634 5.25219 6.644L6.3886 5.29267C6.39954 5.279 6.40993 5.26532 6.41977 5.25056C6.49875 5.12986 6.54668 4.99152 6.55927 4.84782C6.57186 4.70413 6.54874 4.55956 6.49196 4.42696V4.4204L5.33422 1.8397C5.25916 1.66648 5.13009 1.52219 4.96628 1.42836C4.80247 1.33453 4.61271 1.29619 4.42532 1.31907C3.68429 1.41659 3.00409 1.78051 2.51177 2.34288C2.01944 2.90524 1.74867 3.62759 1.75 4.37501C1.75 8.7172 5.28282 12.25 9.625 12.25C10.3724 12.2514 11.0948 11.9806 11.6571 11.4883C12.2195 10.9959 12.5834 10.3157 12.6809 9.5747C12.7039 9.38737 12.6656 9.19766 12.5719 9.03386C12.4782 8.87005 12.334 8.74095 12.1609 8.66579ZM9.625 11.375C7.76911 11.373 5.98981 10.6348 4.6775 9.32252C3.36518 8.0102 2.62703 6.2309 2.625 4.37501C2.62295 3.84098 2.81535 3.32446 3.16627 2.92191C3.51719 2.51936 4.00264 2.25831 4.53196 2.18751C4.53174 2.18969 4.53174 2.19189 4.53196 2.19407L5.6804 4.76439L4.55 6.11736C4.53853 6.13056 4.52811 6.14464 4.51883 6.15946C4.43654 6.28575 4.38826 6.43115 4.37868 6.58158C4.3691 6.732 4.39854 6.88235 4.46415 7.01806C4.95961 8.03142 5.98063 9.04478 7.00493 9.5397C7.14163 9.60469 7.29285 9.63312 7.44382 9.62219C7.59479 9.61126 7.74034 9.56136 7.86625 9.47736C7.8803 9.4679 7.89381 9.45767 7.90672 9.44673L9.23618 8.31251L11.8065 9.46368C11.8065 9.46368 11.8109 9.46368 11.8125 9.46368C11.7426 9.99375 11.4819 10.4802 11.0793 10.832C10.6767 11.1838 10.1597 11.3768 9.625 11.375Z" fill="white"/>
</svg>
