<svg width="14" height="14" viewBox="0 0 14 14" fill="none" xmlns="http://www.w3.org/2000/svg">
<path d="M12.25 2.625H1.75C1.63397 2.625 1.52269 2.67109 1.44064 2.75314C1.35859 2.83519 1.3125 2.94647 1.3125 3.0625V10.5C1.3125 10.7321 1.40469 10.9546 1.56878 11.1187C1.73288 11.2828 1.95544 11.375 2.1875 11.375H11.8125C12.0446 11.375 12.2671 11.2828 12.4312 11.1187C12.5953 10.9546 12.6875 10.7321 12.6875 10.5V3.0625C12.6875 2.94647 12.6414 2.83519 12.5594 2.75314C12.4773 2.67109 12.366 2.625 12.25 2.625ZM11.1251 3.5L7 7.28164L2.87492 3.5H11.1251ZM11.8125 10.5H2.1875V4.05727L6.70414 8.19766C6.78485 8.27175 6.89043 8.31286 7 8.31286C7.10957 8.31286 7.21515 8.27175 7.29586 8.19766L11.8125 4.05727V10.5Z" fill="white"/>
</svg>
