<svg width="15" height="16" viewBox="0 0 15 16" fill="none" xmlns="http://www.w3.org/2000/svg">
<path d="M11.7994 9.09907L9.49149 7.94522C9.40064 7.89995 9.29946 7.87945 9.19816 7.88578C9.09685 7.89211 8.99901 7.92505 8.91451 7.98128L7.85503 8.68801C7.36868 8.42067 6.96844 8.02047 6.70108 7.53416L7.40788 6.47479C7.46411 6.39029 7.49705 6.29246 7.50338 6.19117C7.50971 6.08987 7.48921 5.9887 7.44394 5.89786L6.28998 3.59017C6.24215 3.49359 6.16822 3.41233 6.07657 3.35561C5.98492 3.29889 5.87921 3.26898 5.77142 3.26926C5.0063 3.26926 4.27252 3.57317 3.73149 4.11414C3.19047 4.65511 2.88653 5.38883 2.88653 6.15387C2.88844 7.83639 3.55773 9.44945 4.74756 10.6392C5.9374 11.8289 7.55061 12.4981 9.23329 12.5C9.61214 12.5 9.98728 12.4254 10.3373 12.2805C10.6873 12.1355 11.0053 11.923 11.2732 11.6551C11.5411 11.3873 11.7536 11.0693 11.8986 10.7193C12.0436 10.3693 12.1182 9.99423 12.1182 9.61541C12.1183 9.50823 12.0885 9.40315 12.0322 9.31195C11.9759 9.22075 11.8953 9.14703 11.7994 9.09907ZM9.23329 11.3462C7.85654 11.3447 6.53662 10.7971 5.56311 9.8237C4.5896 8.85029 4.04201 7.53049 4.04049 6.15387C4.04037 5.75372 4.17893 5.36589 4.43259 5.05638C4.68624 4.74687 5.03931 4.53481 5.43173 4.45628L6.25969 6.11493L5.55505 7.16349C5.5024 7.24247 5.47005 7.33321 5.46086 7.42769C5.45168 7.52216 5.46595 7.61744 5.5024 7.70508C5.91522 8.68612 6.69575 9.46658 7.67689 9.87936C7.7648 9.91743 7.86081 9.93301 7.95626 9.9247C8.0517 9.9164 8.14357 9.88445 8.22358 9.83176L9.27729 9.12936L10.9361 9.95724C10.857 10.3501 10.6439 10.7033 10.3334 10.9566C10.0229 11.2099 9.63405 11.3476 9.23329 11.3462ZM7.50236 0.384644C6.20738 0.384361 4.93438 0.719323 3.80728 1.35692C2.68018 1.99453 1.73737 2.91305 1.07061 4.02308C0.403861 5.13312 0.035882 6.39685 0.00249395 7.69127C-0.0308941 8.9857 0.271446 10.2667 0.880087 11.4096L0.0614987 13.8652C-0.00630733 14.0685 -0.0161476 14.2866 0.0330809 14.4952C0.0823095 14.7038 0.188661 14.8946 0.340216 15.0461C0.491771 15.1976 0.68254 15.304 0.891141 15.3532C1.09974 15.4024 1.31793 15.3926 1.52125 15.3248L3.97702 14.5063C4.98296 15.0413 6.09757 15.3401 7.23625 15.38C8.37492 15.42 9.50774 15.2 10.5487 14.7369C11.5897 14.2737 12.5114 13.5795 13.244 12.7069C13.9766 11.8344 14.5008 10.8064 14.7767 9.70104C15.0526 8.59569 15.0731 7.442 14.8366 6.32755C14.6 5.21311 14.1127 4.16719 13.4115 3.2692C12.7103 2.3712 11.8138 1.64473 10.7899 1.14492C9.76603 0.645116 8.64173 0.385111 7.50236 0.384644ZM7.50236 14.2308C6.38661 14.2316 5.29044 13.9378 4.32465 13.3791C4.25394 13.3381 4.17532 13.3126 4.094 13.3043C4.01268 13.2959 3.93053 13.305 3.85297 13.3308L1.15559 14.2308L2.05496 11.5337C2.08088 11.4562 2.09005 11.3741 2.08184 11.2928C2.07363 11.2114 2.04825 11.1328 2.00736 11.062C1.30775 9.85261 1.02686 8.44612 1.20826 7.06077C1.38967 5.67542 2.02322 4.38865 3.01064 3.40007C3.99807 2.4115 5.28416 1.77638 6.66941 1.59324C8.05467 1.41011 9.46164 1.68919 10.6721 2.3872C11.8825 3.08522 12.8288 4.16314 13.364 5.45374C13.8992 6.74435 13.9936 8.17551 13.6323 9.52519C13.2711 10.8749 12.4746 12.0676 11.3662 12.9185C10.2578 13.7693 8.89967 14.2306 7.50236 14.2308Z" fill="white"/>
<path d="M11.7994 9.09907L9.49149 7.94522C9.40064 7.89995 9.29946 7.87945 9.19816 7.88578C9.09685 7.89211 8.99901 7.92505 8.91451 7.98128L7.85503 8.68801C7.36868 8.42067 6.96844 8.02047 6.70108 7.53416L7.40788 6.47479C7.46411 6.39029 7.49705 6.29246 7.50338 6.19117C7.50971 6.08987 7.48921 5.9887 7.44394 5.89786L6.28998 3.59017C6.24215 3.49359 6.16822 3.41233 6.07657 3.35561C5.98492 3.29889 5.87921 3.26898 5.77142 3.26926C5.0063 3.26926 4.27252 3.57317 3.73149 4.11414C3.19047 4.65511 2.88653 5.38883 2.88653 6.15387C2.88844 7.83639 3.55773 9.44945 4.74756 10.6392C5.9374 11.8289 7.55061 12.4981 9.23329 12.5C9.61214 12.5 9.98728 12.4254 10.3373 12.2805C10.6873 12.1355 11.0053 11.923 11.2732 11.6551C11.5411 11.3873 11.7536 11.0693 11.8986 10.7193C12.0436 10.3693 12.1182 9.99423 12.1182 9.61541C12.1183 9.50823 12.0885 9.40315 12.0322 9.31195C11.9759 9.22075 11.8953 9.14703 11.7994 9.09907ZM9.23329 11.3462C7.85654 11.3447 6.53662 10.7971 5.56311 9.8237C4.5896 8.85029 4.04201 7.53049 4.04049 6.15387C4.04037 5.75372 4.17893 5.36589 4.43259 5.05638C4.68624 4.74687 5.03931 4.53481 5.43173 4.45628L6.25969 6.11493L5.55505 7.16349C5.5024 7.24247 5.47005 7.33321 5.46086 7.42769C5.45168 7.52216 5.46595 7.61744 5.5024 7.70508C5.91522 8.68612 6.69575 9.46658 7.67689 9.87936C7.7648 9.91743 7.86081 9.93301 7.95626 9.9247C8.0517 9.9164 8.14357 9.88445 8.22358 9.83176L9.27729 9.12936L10.9361 9.95724C10.857 10.3501 10.6439 10.7033 10.3334 10.9566C10.0229 11.2099 9.63405 11.3476 9.23329 11.3462ZM7.50236 0.384644C6.20738 0.384361 4.93438 0.719323 3.80728 1.35692C2.68018 1.99453 1.73737 2.91305 1.07061 4.02308C0.403861 5.13312 0.035882 6.39685 0.00249395 7.69127C-0.0308941 8.9857 0.271446 10.2667 0.880087 11.4096L0.0614987 13.8652C-0.00630733 14.0685 -0.0161476 14.2866 0.0330809 14.4952C0.0823095 14.7038 0.188661 14.8946 0.340216 15.0461C0.491771 15.1976 0.68254 15.304 0.891141 15.3532C1.09974 15.4024 1.31793 15.3926 1.52125 15.3248L3.97702 14.5063C4.98296 15.0413 6.09757 15.3401 7.23625 15.38C8.37492 15.42 9.50774 15.2 10.5487 14.7369C11.5897 14.2737 12.5114 13.5795 13.244 12.7069C13.9766 11.8344 14.5008 10.8064 14.7767 9.70104C15.0526 8.59569 15.0731 7.442 14.8366 6.32755C14.6 5.21311 14.1127 4.16719 13.4115 3.2692C12.7103 2.3712 11.8138 1.64473 10.7899 1.14492C9.76603 0.645116 8.64173 0.385111 7.50236 0.384644ZM7.50236 14.2308C6.38661 14.2316 5.29044 13.9378 4.32465 13.3791C4.25394 13.3381 4.17532 13.3126 4.094 13.3043C4.01268 13.2959 3.93053 13.305 3.85297 13.3308L1.15559 14.2308L2.05496 11.5337C2.08088 11.4562 2.09005 11.3741 2.08184 11.2928C2.07363 11.2114 2.04825 11.1328 2.00736 11.062C1.30775 9.85261 1.02686 8.44612 1.20826 7.06077C1.38967 5.67542 2.02322 4.38865 3.01064 3.40007C3.99807 2.4115 5.28416 1.77638 6.66941 1.59324C8.05467 1.41011 9.46164 1.68919 10.6721 2.3872C11.8825 3.08522 12.8288 4.16314 13.364 5.45374C13.8992 6.74435 13.9936 8.17551 13.6323 9.52519C13.2711 10.8749 12.4746 12.0676 11.3662 12.9185C10.2578 13.7693 8.89967 14.2306 7.50236 14.2308Z" stroke="white"/>
</svg>
