<svg width="167" height="116" viewBox="0 0 167 116" fill="none" xmlns="http://www.w3.org/2000/svg">
<path d="M63.1841 16.9438V16.7638H81.0939L81.5121 22.4887H81.2469L80.0332 18.001C79.0847 17.9223 78.0137 17.8885 76.8204 17.8885C74.6582 17.8885 72.9141 18.0572 71.5882 18.3834C71.3638 20.3742 71.2517 22.6349 71.2517 25.188C71.2517 26.7852 71.2924 28.0786 71.3842 29.0684C73.1589 29.1808 74.2808 29.2371 74.7602 29.2371C76.0249 29.2371 77.3304 29.1584 78.6767 29.0009L79.4314 25.8741H79.717V33.7135H79.4314L78.6461 30.4068C77.667 30.2831 76.596 30.2268 75.4129 30.2268C73.934 30.2268 72.5878 30.3056 71.374 30.4518C71.2313 31.869 71.1803 33.2636 71.2415 34.6246C71.2619 36.3679 71.2924 37.8075 71.323 38.9323C71.3536 40.0683 71.4148 41.0468 71.5066 41.8678C72.8733 42.3177 74.6684 42.5539 76.8918 42.5539C78.1667 42.5539 79.2478 42.4977 80.125 42.3852L81.4713 37.9538H81.7059L81.3489 43.6899H63.2351V43.5099L67.2536 42.8688C67.3453 42.3627 67.4269 41.5979 67.4983 40.5744C67.5697 39.5396 67.6411 38.3924 67.6921 37.1102C67.7431 35.828 67.7839 34.7595 67.8145 33.8935C67.8349 33.0274 67.8451 32.2739 67.8451 31.6215V26.9876C67.8451 26.4028 67.8247 25.5592 67.7941 24.4795C67.7635 23.3997 67.7125 22.275 67.6411 21.1053C67.5697 19.9355 67.4779 18.7771 67.3556 17.6073L63.1841 16.9438ZM68.2939 42.9701H69.4566V17.4724H68.2939V42.9701Z" fill="white"/>
<path d="M83.1848 16.6849H94.8527C96.7293 16.6849 98.1878 16.8761 99.2383 17.2473C100.289 17.6185 101.166 18.1808 101.849 18.9344C102.42 19.5643 102.859 20.3291 103.165 21.2401C103.471 22.1511 103.624 23.0959 103.624 24.0632C103.624 25.5141 103.277 26.8525 102.594 28.0785C101.9 29.3157 100.931 30.2942 99.6871 31.0365C98.4326 31.7789 97.0149 32.15 95.4034 32.15C94.1387 32.15 92.9862 32.0375 91.9561 31.8238V31.6439C92.1906 31.6664 92.5476 31.6776 93.0372 31.6776C94.2917 31.6776 95.4544 31.4414 96.5253 30.969C97.5962 30.4967 98.453 29.7656 99.1057 28.7646C99.7585 27.7636 100.085 26.5151 100.085 24.9967C100.085 23.2421 99.5851 21.6 98.5856 20.0479C97.586 18.507 96.1173 17.7309 94.1591 17.7309C93.2208 17.7309 92.3844 17.8322 91.6501 18.0234C91.5685 18.5183 91.4869 19.733 91.3951 21.6788C91.3033 23.6245 91.2625 24.9967 91.2625 25.784V34.5569C91.2625 34.9281 91.2829 35.7604 91.3339 37.0538C91.3849 38.3473 91.4359 39.4608 91.4971 40.4056C91.5481 41.3503 91.6399 42.1376 91.7521 42.7787L95.9542 43.4648L95.7706 43.6898H83.1848L83.2561 43.4311L87.3256 42.79C87.448 41.7552 87.5398 40.6642 87.6112 39.517C87.6826 38.3698 87.7336 36.9751 87.7846 35.3555C87.8356 33.7359 87.856 32.5212 87.856 31.7226V27.3137C87.856 25.7615 87.8152 24.0069 87.7234 22.0837C87.6316 20.1491 87.5194 18.6532 87.3868 17.5622L83.2153 16.9211L83.1848 16.6849ZM88.315 42.9362H89.4879V17.3823H88.315V42.9362ZM95.0566 17.1236H94.4549V17.3035C95.7196 17.3823 96.8313 17.7759 97.7798 18.4958C98.7283 19.2156 99.4423 20.1379 99.9217 21.2851C100.401 22.4211 100.646 23.647 100.646 24.963C100.646 26.4589 100.35 27.6961 99.7687 28.6746C99.1873 29.6531 98.4938 30.3617 97.688 30.8116C96.8823 31.2502 96.0766 31.5202 95.281 31.5989V31.8238H95.587C96.2193 31.8238 97.0149 31.6326 97.9838 31.2615C98.9527 30.8903 99.8401 30.1705 100.646 29.102C101.452 28.0335 101.86 26.5601 101.86 24.6705C101.86 23.5008 101.645 22.3423 101.207 21.1726C100.768 20.0029 100.034 19.0469 99.0139 18.2708C97.9736 17.5172 96.6579 17.1236 95.0566 17.1236Z" fill="white"/>
<path d="M125.44 8.39574L125.348 7.59718C125.338 7.48471 125.052 4.9878 126.266 2.98578C127.48 0.983753 129.693 0.331409 129.785 0.297667L130.499 0.0952148L130.591 0.893774C130.601 0.995 130.897 3.50316 129.673 5.50518C128.459 7.50721 126.246 8.15955 126.144 8.19329L125.44 8.39574ZM129.326 2.01851C128.714 2.33343 127.878 2.8958 127.337 3.78434C126.786 4.68413 126.633 5.74137 126.603 6.4837C127.215 6.16877 128.051 5.60641 128.592 4.71787C129.142 3.81808 129.295 2.76083 129.326 2.01851Z" fill="white"/>
<path d="M152.397 37.8638C151.978 37.8638 151.723 37.8188 151.723 37.8188L150.999 37.7176L151.173 36.9415C151.193 36.8403 151.785 34.3996 153.59 33.0499C154.834 32.1164 156.323 31.9814 157.088 31.9814C157.506 31.9814 157.761 32.0152 157.761 32.0152L158.486 32.1277L158.312 32.9037C158.292 33.005 157.7 35.4569 155.895 36.7953C154.651 37.7288 153.172 37.8638 152.397 37.8638ZM156.762 33.4099C156.099 33.4548 155.13 33.6236 154.314 34.2309C153.508 34.827 153.009 35.7606 152.723 36.4241C153.376 36.3904 154.355 36.2217 155.171 35.6143C155.976 35.007 156.476 34.0847 156.762 33.4099Z" fill="white"/>
<path d="M14.1463 37.8638C13.3712 37.8638 11.8923 37.7288 10.648 36.7953C8.84273 35.4456 8.26137 32.9937 8.24097 32.9037L8.05739 32.1277L8.78153 32.0152C8.78153 32.0152 9.03652 31.9814 9.45468 31.9814C10.2298 31.9814 11.7087 32.1164 12.953 33.0499C14.7583 34.3996 15.3396 36.8403 15.3702 36.9415L15.5538 37.7176L14.8195 37.8188C14.8195 37.8188 14.5645 37.8638 14.1463 37.8638ZM9.78106 33.4099C10.0666 34.0847 10.5664 35.007 11.3721 35.6143C12.1881 36.2217 13.157 36.3904 13.8199 36.4241C13.5344 35.7493 13.0346 34.827 12.2289 34.2309C11.4129 33.6123 10.444 33.4436 9.78106 33.4099Z" fill="white"/>
<path d="M35.8808 67.759L35.9216 66.9605C35.9216 66.848 36.0746 64.3286 37.6147 62.6303C39.1547 60.9207 41.4394 60.7407 41.5311 60.7295L42.2655 60.6732L42.2247 61.483C42.2145 61.5955 42.0717 64.1149 40.5316 65.8132C38.9915 67.5228 36.7069 67.7028 36.6151 67.7028L35.8808 67.759ZM40.7866 62.3153C40.1339 62.4953 39.2159 62.8664 38.5326 63.6313C37.8492 64.3961 37.5127 65.3971 37.3495 66.1282C38.0022 65.9482 38.9201 65.5771 39.6035 64.8122C40.297 64.0474 40.6336 63.0352 40.7866 62.3153Z" fill="white"/>
<path d="M130.336 67.4668L129.601 67.4106C129.499 67.3993 127.215 67.2194 125.685 65.521C124.145 63.8114 123.992 61.292 123.992 61.1796L123.951 60.3698L124.685 60.426C124.777 60.4372 127.062 60.6172 128.602 62.3268C130.142 64.0251 130.295 66.5558 130.295 66.657L130.336 67.4668ZM125.42 62.0231C125.583 62.7542 125.909 63.7552 126.603 64.52C127.286 65.2736 128.204 65.656 128.857 65.836C128.694 65.1161 128.367 64.1039 127.674 63.339C126.99 62.5742 126.083 62.2031 125.42 62.0231Z" fill="white"/>
<path d="M41.1028 8.39574L40.3991 8.19329C40.3073 8.1708 38.0941 7.51845 36.8701 5.50518C35.6564 3.5144 35.942 1.00625 35.9522 0.893774L36.0542 0.0952148L36.7682 0.297667C36.8599 0.320162 39.0732 0.983753 40.2869 2.98578C41.5006 4.9878 41.215 7.48471 41.2048 7.59718L41.1028 8.39574ZM37.2271 2.01851C37.2577 2.76083 37.4107 3.82933 37.9513 4.71787C38.4918 5.61765 39.3282 6.18002 39.9401 6.4837C39.9095 5.74137 39.7565 4.67288 39.216 3.78434C38.6652 2.88455 37.8289 2.33343 37.2271 2.01851Z" fill="white"/>
<path d="M136.71 66.4432C136.17 66.4432 135.639 66.3757 135.139 66.2408C132.467 65.5209 130.805 62.9003 130.733 62.7878L130.315 62.1243L130.968 61.7531C131.039 61.7081 132.722 60.7521 134.772 60.7521C135.313 60.7521 135.833 60.8196 136.333 60.9545C139.005 61.6856 140.667 64.3062 140.739 64.4075L141.157 65.0711L140.514 65.4422C140.433 65.4872 138.75 66.4432 136.71 66.4432ZM132.324 62.6641C132.936 63.3839 134.038 64.4637 135.456 64.8461C136.71 65.1835 138.281 64.8573 139.148 64.5199C138.536 63.8001 137.434 62.7204 136.017 62.338C134.762 62.0005 133.181 62.3379 132.324 62.6641Z" fill="white"/>
<path d="M28.4455 66.4433C26.4057 66.4433 24.7228 65.4873 24.6514 65.4536L23.9987 65.0824L24.4169 64.4188C24.4883 64.3063 26.1507 61.697 28.8229 60.9659C29.3227 60.8309 29.8428 60.7634 30.3834 60.7634C32.4334 60.7634 34.1163 61.7194 34.1877 61.7644L34.8405 62.1356L34.4223 62.7992C34.3509 62.9117 32.6884 65.521 30.0162 66.2521C29.5165 66.3758 28.9963 66.4433 28.4455 66.4433ZM26.0079 64.52C26.5995 64.745 27.4766 65.0037 28.4455 65.0037C28.8841 65.0037 29.3125 64.9474 29.7001 64.8462C31.1177 64.4525 32.2295 63.384 32.8312 62.6642C31.9643 62.3268 30.3936 61.9894 29.1391 62.3381C27.7214 62.7205 26.6199 63.8002 26.0079 64.52Z" fill="white"/>
<path d="M19.6131 40.8218L18.9909 40.3831C18.8889 40.3044 16.4513 38.5836 15.6864 35.6705C14.9112 32.7575 16.1351 29.8556 16.1861 29.7319L16.5023 29.0009L17.1244 29.4282C17.2264 29.507 19.6538 31.2278 20.429 34.1521C21.1939 37.0652 19.9802 39.967 19.9292 40.0907L19.6131 40.8218ZM17.0836 31.1941C16.8185 32.1389 16.5329 33.736 16.9307 35.2769C17.3386 36.829 18.3586 37.9987 19.0419 38.6398C19.3071 37.695 19.5927 36.0979 19.1847 34.557C18.7767 33.0161 17.7568 31.8352 17.0836 31.1941Z" fill="white"/>
<path d="M146.93 40.8218L146.614 40.0907C146.552 39.967 145.339 37.0764 146.114 34.1521C146.889 31.2278 149.316 29.507 149.418 29.4282L150.041 29.0009L150.357 29.7319C150.408 29.8556 151.621 32.7575 150.856 35.6705C150.081 38.5948 147.654 40.3157 147.542 40.3831L146.93 40.8218ZM149.469 31.1941C148.786 31.8352 147.766 33.0161 147.358 34.557C146.95 36.1092 147.246 37.695 147.501 38.6398C148.184 37.9987 149.204 36.829 149.612 35.2769C150.02 33.736 149.724 32.1389 149.469 31.1941Z" fill="white"/>
<path d="M164.115 42.3402C162.514 40.1357 159.607 38.8536 156.17 38.9098C151.438 38.9885 147.787 43.2963 144.594 47.6715C144.645 47.4803 144.706 47.2891 144.747 47.0866C146.093 40.9905 141.453 35.4569 137.791 34.4671C133.854 33.4098 129.295 34.9845 127.98 40.9006C127.205 44.3985 128.102 46.8167 128.989 48.2226C130.152 50.0671 131.988 51.2706 134.018 51.518C137.21 51.9117 139.923 49.6847 140.933 45.8381C141.585 43.33 140.566 40.4282 138.505 38.921C136.751 37.6389 134.721 37.7626 133.079 39.236C131.937 40.2595 131.437 41.9466 131.784 43.6337C132.09 45.1071 132.988 46.2206 134.13 46.5355C135.323 46.8617 136.496 46.333 137.057 45.242C137.608 44.1623 137.394 42.8351 136.496 41.8566L135.578 42.8689C136.057 43.3975 136.19 44.0273 135.925 44.5447C135.711 44.9496 135.201 45.3545 134.436 45.1521C133.773 44.9721 133.242 44.2748 133.049 43.33C132.865 42.4302 132.998 41.1705 133.895 40.3495C135.099 39.2697 136.516 39.191 137.791 40.1133C139.127 41.0918 140.249 43.285 139.688 45.4332C138.852 48.6275 136.731 50.4158 134.171 50.0896C132.508 49.8759 131.009 48.8974 130.05 47.3903C129.316 46.2206 128.571 44.2073 129.234 41.2267C130.407 35.9293 134.415 35.0182 137.475 35.8393C140.637 36.6941 144.645 41.4742 143.472 46.7379C142.758 49.9547 140.922 53.1377 138.556 55.2297C135.456 57.974 131.519 58.8063 127.194 57.6366C125.542 57.198 124.073 56.6243 122.747 55.9157C123.563 50.1796 120.993 45.422 118.719 41.1818C118.403 40.5969 118.097 40.0345 117.811 39.4722C122.462 40.8781 126.032 38.8873 127.919 36.3454L128.571 35.4681L127.572 35.1982C122.849 33.9272 121.197 30.688 122.38 25.0193C122.88 22.6012 124.104 20.3292 125.736 18.7996C127.296 17.3374 129.04 16.7076 130.519 17.09C132.763 17.6636 134.752 18.4959 134.364 22.3425L135.65 22.4999C136.2 17.0787 132.559 16.1565 130.805 15.7066C128.918 15.2342 126.766 15.9652 124.889 17.7198C123.053 19.4519 121.677 21.9938 121.116 24.7044C119.871 30.6992 121.585 34.5908 126.215 36.2667C124.247 38.2575 120.912 39.4609 116.689 37.5489L115.078 36.8178L115.873 38.5386C116.383 39.6296 116.975 40.7431 117.617 41.9241C119.708 45.8157 122.054 50.1684 121.534 55.1959C115.659 51.3381 113.16 43.7574 112.456 28.0449C113.711 31.824 115.577 34.051 117.444 34.7033L118.607 35.1194L118.26 33.826C116.73 28.0561 117.291 25.8629 118.321 22.7699C120.963 14.8743 126.766 10.4316 132.447 11.95C135.323 12.726 137.496 14.3794 138.74 16.7301C139.841 18.8108 140.127 21.3302 139.535 23.6247C138.485 27.6737 135.038 27.7187 133.905 27.415C132.559 27.0551 131.539 26.324 130.937 25.3118C130.285 24.2208 130.142 22.8374 130.499 21.2177L129.244 20.8803C128.806 22.8711 129.02 24.6707 129.856 26.0878C130.642 27.415 131.937 28.3486 133.61 28.7985C135.915 29.4283 139.658 28.3486 140.79 24.0183C141.483 21.3527 141.147 18.4397 139.872 16.0102C138.883 14.1319 136.843 11.6688 132.763 10.5665C128.877 9.52053 124.971 10.9264 121.85 14.1432C123.033 10.3528 123.206 7.09111 122.268 4.69543C121.554 2.89585 120.269 1.70364 118.556 1.23125C116.261 0.612649 113.997 1.38871 112.793 3.19953C112.558 3.5707 112.375 3.9531 112.242 4.36925V1.0288H54.321V4.03183C54.2088 3.79564 54.0864 3.55945 53.9436 3.34575C52.6993 1.46744 50.3127 0.623895 48.0077 1.2425C46.284 1.71489 44.9989 2.9071 44.285 4.70668C43.3364 7.10236 43.5098 10.3641 44.7031 14.1544C41.5924 10.9377 37.6759 9.53178 33.79 10.5778C29.7103 11.68 27.6704 14.1432 26.6811 16.0215C25.4062 18.4397 25.0696 21.364 25.7632 24.0296C26.8851 28.3598 30.6384 29.4395 32.9332 28.8097C34.5957 28.3598 35.9012 27.4263 36.6865 26.0991C37.5229 24.6819 37.7371 22.8824 37.2985 20.8916L36.0338 21.229C36.3908 22.8486 36.248 24.2208 35.5952 25.323C34.9935 26.3353 33.9634 27.0664 32.6273 27.4263C31.5053 27.73 28.058 27.685 27.0075 23.6359C26.4159 21.3415 26.7015 18.8333 27.803 16.7413C29.0371 14.3906 31.2198 12.7373 34.0959 11.9724C39.7769 10.4428 45.5803 14.8855 48.2218 22.7924C49.2622 25.8854 49.8129 28.0786 48.2831 33.8485L47.9363 35.1419L49.099 34.7258C50.9348 34.0734 52.8319 31.5878 54.0966 27.6737C53.4132 43.6562 50.9144 51.3268 44.9989 55.2184C44.4889 50.1909 46.8246 45.8381 48.9154 41.9466C49.5477 40.7768 50.1495 39.6634 50.6595 38.5611L51.455 36.8403L49.8435 37.5714C45.6211 39.4834 42.2859 38.2687 40.3175 36.2892C44.9479 34.6133 46.6614 30.7217 45.4171 24.7269C44.8561 22.0163 43.4792 19.4744 41.6434 17.7423C39.7667 15.9765 37.6147 15.2454 35.7278 15.7291C33.9735 16.1789 30.3324 17.1012 30.8832 22.5224L32.1683 22.365C31.7807 18.5184 33.7696 17.6861 36.0134 17.1125C37.4923 16.7413 39.2363 17.3599 40.7968 18.8221C42.4287 20.3517 43.6424 22.6124 44.1524 25.0418C45.3253 30.7105 43.6832 33.9497 38.961 35.2207L37.9614 35.4906L38.6142 36.3679C40.5112 38.9098 44.081 40.9006 48.7216 39.4947C48.436 40.0458 48.1301 40.6194 47.8139 41.2043C45.5293 45.4445 42.9693 50.2021 43.7852 55.9382C42.4593 56.6468 40.9906 57.2204 39.3383 57.6591C35.0139 58.8288 31.0872 57.9853 27.9764 55.2522C25.6102 53.1602 23.7743 49.9884 23.0604 46.7604C21.8977 41.4967 25.8958 36.7166 29.0575 35.8618C32.1275 35.0407 36.1256 35.9518 37.3087 41.2492C37.9716 44.2298 37.2271 46.243 36.4928 47.4128C35.534 48.9199 34.0449 49.8984 32.3825 50.1121C29.8123 50.4383 27.701 48.65 26.8647 45.4557C26.3751 43.5662 27.1809 41.283 28.7618 40.1357C30.0367 39.2022 31.4544 39.2922 32.6579 40.3719C33.5656 41.193 33.6982 42.4415 33.5044 43.3525C33.3106 44.2973 32.7803 45.0058 32.1173 45.1746C31.3524 45.377 30.8322 44.9834 30.6282 44.5672C30.363 44.0498 30.4956 43.42 30.975 42.8913L30.0571 41.8791C29.1697 42.8576 28.9453 44.1848 29.4961 45.2645C30.0571 46.3555 31.23 46.8841 32.4233 46.558C33.5656 46.2543 34.4631 45.1408 34.7691 43.6562C35.1159 41.9691 34.6161 40.282 33.4738 39.2585C31.8317 37.7851 29.8021 37.6613 28.0478 38.9435C25.9876 40.4507 24.9677 43.3525 25.6204 45.8606C26.6301 49.7072 29.3431 51.9342 32.5355 51.5405C34.5651 51.2931 36.401 50.0896 37.5637 48.2451C38.451 46.8392 39.3485 44.4322 38.5734 40.9231C37.2577 35.007 32.6987 33.4211 28.7618 34.4896C25.1002 35.4794 20.4596 41.013 21.8059 47.1091C21.8467 47.3003 21.9079 47.4915 21.9589 47.694C18.7665 43.3187 15.1254 39.011 10.3828 38.9323C7.01704 38.8761 4.03886 40.1582 2.43759 42.3627C1.18309 44.0948 0.805721 46.288 1.33608 48.7062C1.78484 50.7532 2.78437 52.3054 4.20206 53.2164C5.56875 54.0824 7.29241 54.2849 8.92429 53.7563C11.1885 53.0252 12.6266 51.2481 12.7694 49.0099C12.902 46.8841 11.8209 44.8259 10.1482 43.9936C8.52652 43.1838 6.70086 44.151 6.02772 45.557C5.39536 46.8617 5.80333 48.2788 7.07823 49.1674L7.76158 47.9414C7.05783 47.4465 6.84365 46.8504 7.15983 46.2093C7.5576 45.3883 8.65911 44.8034 9.60764 45.2758C10.8009 45.8606 11.5557 47.3453 11.4639 48.8862C11.3619 50.5283 10.3012 51.7992 8.54692 52.3616C7.25162 52.7777 5.90532 52.6315 4.8446 51.9567C3.73289 51.2481 2.95775 49.9997 2.59058 48.3463C2.15201 46.3443 2.43759 44.6234 3.43711 43.2288C4.78341 41.3617 7.34341 40.2707 10.342 40.327C15.105 40.4057 18.8685 45.6694 22.1935 50.3146C23.295 51.8442 24.3353 53.2951 25.3552 54.4761C21.8977 53.1826 18.9297 53.0027 16.7573 54.0599C15.1254 54.8473 14.0545 56.2757 13.6363 58.1765C13.1162 60.5946 13.7383 62.8666 15.2784 64.0926C15.9719 64.6437 16.7879 64.9249 17.6344 64.9249C18.5115 64.9249 19.4295 64.6324 20.2964 64.0363C21.6121 63.1478 22.3567 61.4719 22.1527 59.8636C21.9793 58.5139 21.1837 57.4904 20.0108 57.1305C18.8889 56.7818 17.6344 57.2317 16.9103 58.244C16.2371 59.1887 16.1759 60.4034 16.7369 61.5057L17.869 60.8083C17.461 60.0098 17.7262 59.4137 17.9302 59.1325C18.328 58.5701 19.0419 58.3227 19.6641 58.5139C20.582 58.7951 20.8166 59.6161 20.8778 60.066C20.99 60.9433 20.6432 62.1355 19.6335 62.8216C18.3586 63.6877 17.0429 63.7326 16.0535 62.9341C14.952 62.0568 14.5237 60.3584 14.9214 58.5139C15.2376 57.063 16.0535 55.972 17.2978 55.3646C20.0516 54.0262 24.6209 55.061 29.8225 58.2215C31.4034 58.9975 33.3208 59.5936 35.6258 59.5936C36.8599 59.5936 38.196 59.4249 39.6443 59.0425C41.2762 58.6039 42.7449 58.064 44.0708 57.4004C45.6618 64.1376 50.2209 68.524 55.2899 68.524C56.065 68.524 56.8504 68.4228 57.6357 68.2091C60.1039 67.5455 62.256 65.8809 63.3881 63.7439C64.357 61.9331 64.5712 59.8073 64.0102 57.6141C63.9082 57.1979 63.7756 56.7818 63.6227 56.3881C68.8549 60.8533 75.6781 63.7664 82.481 65.0261L83.2765 65.1723L84.0721 65.0261C90.875 63.7776 97.6982 60.8533 102.93 56.3881C102.777 56.793 102.645 57.1979 102.543 57.6141C101.982 59.8073 102.206 61.9218 103.165 63.7439C104.297 65.8809 106.449 67.5455 108.917 68.2091C109.713 68.4228 110.488 68.524 111.273 68.524C116.342 68.524 120.901 64.1376 122.493 57.4004C123.829 58.064 125.287 58.6039 126.919 59.0425C128.367 59.4362 129.703 59.5936 130.937 59.5936C133.242 59.5936 135.16 58.9975 136.72 58.1877C141.942 55.0722 146.512 54.0262 149.265 55.3646C150.51 55.972 151.336 57.063 151.642 58.5139C152.04 60.3584 151.611 62.0568 150.51 62.9341C149.51 63.7326 148.205 63.6877 146.93 62.8216C145.92 62.1355 145.573 60.9433 145.686 60.066C145.747 59.6049 145.981 58.7951 146.899 58.5139C147.511 58.3227 148.235 58.5701 148.633 59.1325C148.837 59.4137 149.112 59.9985 148.694 60.8083L149.826 61.5057C150.387 60.4034 150.326 59.1887 149.653 58.244C148.929 57.2204 147.685 56.7818 146.552 57.1305C145.38 57.4904 144.584 58.5139 144.411 59.8636C144.207 61.4719 144.951 63.1478 146.257 64.0363C147.134 64.6324 148.052 64.9249 148.929 64.9249C149.775 64.9249 150.581 64.6437 151.285 64.0926C152.815 62.8666 153.447 60.6059 152.917 58.1765C152.509 56.2757 151.428 54.8473 149.806 54.0599C147.634 53.0027 144.666 53.1827 141.208 54.4649C142.228 53.2839 143.279 51.8442 144.37 50.3033C147.695 45.6582 151.458 40.3944 156.221 40.3157C159.179 40.2595 161.78 41.3505 163.126 43.2175C164.136 44.6122 164.421 46.333 163.973 48.3238C163.606 49.9772 162.83 51.2256 161.719 51.9342C160.658 52.609 159.301 52.7553 158.016 52.3391C156.262 51.7767 155.201 50.5058 155.099 48.8637C155.008 47.334 155.773 45.8382 156.956 45.2533C157.914 44.7809 159.016 45.3658 159.414 46.1868C159.72 46.8279 159.516 47.424 158.812 47.9189L159.505 49.1224C160.78 48.2338 161.188 46.8167 160.556 45.512C159.873 44.1173 158.057 43.15 156.435 43.9486C154.763 44.7809 153.682 46.8392 153.814 48.9649C153.957 51.2031 155.385 52.9802 157.659 53.7113C159.291 54.2399 161.005 54.0375 162.382 53.1714C163.799 52.2604 164.799 50.7082 165.248 48.6612C165.747 46.2655 165.37 44.0723 164.115 42.3402ZM112.732 8.51952C113.548 10.0042 115.2 10.8365 116.842 10.589C118.158 10.3978 119.137 9.52053 119.474 8.24958C119.79 7.00113 119.392 5.62896 118.474 4.81915C117.627 4.07682 116.516 3.99809 115.526 4.6167L116.159 5.86515C116.883 5.41526 117.413 5.71893 117.668 5.94388C118.178 6.38253 118.403 7.18109 118.229 7.85593C117.964 8.86819 117.056 9.11563 116.669 9.17186C115.751 9.29558 114.476 8.92442 113.844 7.7772C113.119 6.47251 113.119 5.11158 113.833 4.04308C114.731 2.6934 116.455 2.14228 118.239 2.62592C119.555 2.98583 120.534 3.89687 121.075 5.26904C122.278 8.31707 121.309 13.3446 118.413 19.0695C117.933 20.0818 117.495 21.1503 117.107 22.2862C116.087 25.3455 115.516 27.6737 116.608 32.5775C114.68 30.8455 112.273 26.369 112.232 17.3599V17.1012V7.31606C112.344 7.72096 112.507 8.12586 112.732 8.51952ZM49.9455 32.4988C51.0164 27.64 50.4453 25.323 49.4356 22.275C49.0582 21.139 48.6094 20.0705 48.1199 19.0695C45.2437 13.3334 44.2748 8.30582 45.4783 5.25779C46.0188 3.88562 46.9979 2.97459 48.3136 2.61467C50.1087 2.13104 51.9548 2.76089 52.8931 4.17805C53.6172 5.28029 53.6376 6.64121 52.9441 7.91216C52.3321 9.02565 51.0164 9.38556 50.0475 9.23935C49.1602 9.10438 48.5176 8.587 48.3238 7.85593C48.1505 7.18109 48.3748 6.38253 48.8848 5.94388C49.1398 5.71893 49.6701 5.41526 50.3943 5.86515L51.0266 4.6167C50.0373 4.00934 48.9256 4.07682 48.0791 4.81915C47.1611 5.62896 46.7634 7.00113 47.0795 8.24958C47.4161 9.54302 48.4564 10.4428 49.8741 10.6453C51.2816 10.8702 53.1277 10.3191 54.0558 8.64324C54.1578 8.45204 54.2394 8.26083 54.321 8.08087V17.0787V17.2812C54.27 25.233 52.0058 30.4743 49.9455 32.4988ZM62.2662 63.0241C61.134 65.1498 58.9718 66.387 57.3297 66.8257C52.0262 68.2428 46.8348 63.9351 45.2539 56.793C50.2107 53.7788 53.0053 48.605 54.4026 39.1235C54.7901 43.8474 56.473 47.9864 59.0432 51.4956C58.2069 51.2256 57.289 51.1469 56.2894 51.3156C53.7294 51.7542 52.3933 53.2501 51.7304 54.4199C50.8125 56.0395 50.5779 58.109 51.0878 59.9535C51.4754 61.3145 52.4035 62.5292 53.5764 63.204C54.6576 63.8226 55.8611 63.9351 56.9626 63.5302C59.1758 62.7204 59.9 60.6284 59.4716 58.975C59.1044 57.5466 57.7479 56.2757 55.6367 56.8493L55.9426 58.2327C57.3093 57.8615 58.0131 58.5814 58.2273 59.3687C58.4823 60.3697 57.9927 61.6519 56.5546 62.1805C55.7795 62.4617 54.9329 62.383 54.168 61.9443C53.2909 61.4494 52.5973 60.5496 52.3219 59.5374C51.914 58.0865 52.0975 56.4556 52.8217 55.1847C53.5764 53.8575 54.8411 53.0139 56.4832 52.7328C59.747 52.1704 61.9908 54.9822 62.7557 58.0078C63.2249 59.8411 63.0617 61.5282 62.2662 63.0241ZM83.8579 63.6089L83.2765 63.7214L82.6952 63.6089C69.222 61.1233 55.6163 51.9567 55.6163 37.0765V17.1012V2.45721H110.947V17.1012V37.0765C110.937 51.9679 97.3311 61.1345 83.8579 63.6089ZM121.289 56.793C119.708 63.9351 114.507 68.2541 109.213 66.8257C107.571 66.387 105.409 65.1498 104.277 63.0241C103.491 61.5282 103.318 59.8411 103.787 58.0078C104.552 54.9822 106.796 52.1704 110.06 52.7328C111.702 53.0139 112.977 53.8575 113.721 55.1847C114.445 56.4556 114.629 58.0865 114.221 59.5374C113.935 60.5496 113.242 61.4382 112.375 61.9443C111.6 62.383 110.753 62.4617 109.988 62.1805C108.55 61.6519 108.061 60.3697 108.316 59.3687C108.52 58.5701 109.223 57.8615 110.59 58.2327L110.896 56.8493C108.795 56.2757 107.438 57.5579 107.061 58.975C106.633 60.6284 107.357 62.7204 109.57 63.5302C110.672 63.9351 111.875 63.8114 112.956 63.204C114.129 62.5404 115.067 61.3257 115.455 59.9535C115.975 58.109 115.741 56.0395 114.823 54.4199C114.16 53.2389 112.824 51.743 110.264 51.3043C109.264 51.1356 108.346 51.2144 107.51 51.4731C110.08 47.9639 111.763 43.8361 112.14 39.101C113.538 48.605 116.332 53.7788 121.289 56.793Z" fill="white"/>
<path d="M83.2663 60.4709L83.1643 60.4485C71.2925 58.2552 58.5128 50.0109 58.5128 37.0653V5.66272H108.03V37.0765C108.03 50.0222 95.2504 58.2665 83.3785 60.4597L83.2663 60.4709ZM59.8081 7.09113V37.0765C59.8081 49.1449 71.9554 56.9055 83.2663 59.0313C94.5875 56.9055 106.735 49.1561 106.735 37.0765V7.09113H59.8081Z" fill="white"/>
<path d="M2.87618 113.109L3.17196 114.402C3.32495 114.492 3.49834 114.571 3.69212 114.627C3.88591 114.683 4.05929 114.706 4.21228 114.706C4.40607 114.706 4.58965 114.661 4.74264 114.571C4.89563 114.481 5.03841 114.368 5.14041 114.222C5.2424 114.087 5.324 113.918 5.37499 113.75C5.42599 113.57 5.45658 113.401 5.45658 113.232C5.45658 112.884 5.36479 112.591 5.19141 112.355C5.01802 112.119 4.72224 111.815 4.31427 111.433C3.9063 111.062 3.61052 110.747 3.42694 110.499C3.27395 110.274 3.15156 110.061 3.06997 109.836C2.98837 109.611 2.95778 109.363 2.95778 109.093C2.95778 108.79 3.01897 108.486 3.14136 108.194C3.26375 107.89 3.44734 107.642 3.70232 107.451C3.9573 107.249 4.27348 107.148 4.64065 107.148C4.81403 107.148 4.98742 107.159 5.1812 107.181C5.37499 107.204 5.50758 107.215 5.57897 107.215C5.64017 107.215 5.70136 107.204 5.75236 107.204C5.80335 107.204 5.85435 107.193 5.88495 107.193C5.91555 107.181 5.95635 107.181 5.98694 107.17L6.00734 108.97H5.95635L5.71156 107.755C5.35459 107.541 5.03841 107.429 4.77323 107.429C4.54885 107.429 4.34487 107.485 4.17148 107.597C3.9981 107.71 3.85531 107.867 3.75331 108.07C3.65132 108.272 3.61052 108.497 3.61052 108.745C3.61052 109.003 3.68192 109.24 3.80431 109.465C3.9369 109.678 4.12049 109.892 4.34487 110.094C4.57945 110.297 4.82424 110.522 5.08942 110.758C5.35459 110.994 5.55857 111.208 5.72176 111.433C6.02774 111.849 6.18073 112.333 6.18073 112.884C6.18073 113.199 6.11953 113.514 5.99714 113.84C5.87475 114.166 5.68096 114.447 5.39539 114.672C5.10981 114.897 4.74264 115.009 4.29387 115.009C4.14088 115.009 3.9471 114.998 3.71252 114.976C3.48813 114.953 3.31475 114.942 3.21276 114.942C3.16176 114.942 3.12096 114.942 3.10056 114.953C3.06997 114.953 3.02917 114.964 2.97818 114.964C2.91698 114.976 2.88638 114.976 2.87618 114.976L2.81499 113.12H2.87618V113.109ZM4.78344 107.238H4.65085C4.36527 107.238 4.10009 107.316 3.8655 107.474C3.62072 107.631 3.43714 107.845 3.29435 108.137C3.15156 108.419 3.08017 108.745 3.08017 109.105C3.08017 109.555 3.22296 109.971 3.50853 110.364C3.63092 110.533 3.75331 110.668 3.8655 110.78C3.9777 110.893 4.14088 111.05 4.36526 111.253C4.58965 111.455 4.76304 111.624 4.90583 111.759C5.03842 111.894 5.15061 112.018 5.2322 112.141C5.46679 112.456 5.57897 112.816 5.57897 113.199C5.57897 113.469 5.52798 113.727 5.41579 113.975C5.3036 114.222 5.1506 114.425 4.94662 114.582C4.74263 114.74 4.50806 114.818 4.23268 114.818V114.874C4.54885 114.886 4.83443 114.818 5.07921 114.65C5.32399 114.481 5.51778 114.267 5.65037 113.997C5.78296 113.727 5.84415 113.446 5.84415 113.154C5.84415 112.906 5.81355 112.681 5.75236 112.468C5.69116 112.265 5.58917 112.051 5.42598 111.838C5.33419 111.714 5.17101 111.545 4.93643 111.32C4.70184 111.107 4.45706 110.882 4.22248 110.657C3.97769 110.432 3.80431 110.252 3.69212 110.106C3.41674 109.746 3.28415 109.341 3.28415 108.902C3.28415 108.509 3.40654 108.149 3.65132 107.822C3.8961 107.485 4.27347 107.316 4.77323 107.294V107.238H4.78344Z" fill="white"/>
<path d="M10.8315 107.114C11.3823 107.114 11.8617 107.237 12.2696 107.485C12.6776 107.732 13.004 108.058 13.2692 108.463C13.5241 108.868 13.7179 109.296 13.8403 109.757C13.9627 110.207 14.0239 110.645 14.0239 111.073C14.0239 111.556 13.9525 112.017 13.8199 112.479C13.6873 112.94 13.4833 113.356 13.2182 113.738C12.953 114.121 12.6266 114.424 12.2288 114.649C11.8311 114.874 11.3925 114.987 10.9131 114.987C10.2196 114.987 9.62803 114.784 9.13847 114.368C8.64891 113.963 8.29194 113.446 8.06756 112.85C7.83297 112.242 7.72078 111.658 7.72078 111.073C7.72078 110.567 7.79218 110.072 7.94516 109.588C8.08795 109.116 8.30214 108.677 8.58772 108.306C8.8631 107.923 9.19967 107.631 9.58724 107.417C9.95441 107.226 10.3828 107.114 10.8315 107.114ZM10.6786 107.316V107.26C10.3114 107.26 9.96461 107.372 9.61783 107.575C9.27106 107.777 8.96508 108.07 8.7101 108.418C8.44492 108.778 8.24094 109.183 8.09815 109.633C7.95536 110.083 7.87377 110.567 7.87377 111.061C7.87377 111.669 7.99616 112.265 8.24094 112.85C8.48572 113.423 8.8223 113.896 9.26086 114.256C9.68923 114.616 10.1686 114.807 10.6888 114.829V114.773C10.189 114.717 9.74023 114.503 9.35266 114.132C8.96509 113.772 8.66931 113.311 8.47553 112.771C8.28174 112.231 8.16955 111.669 8.16955 111.084C8.16955 110.612 8.23074 110.15 8.34293 109.712C8.45512 109.273 8.62851 108.879 8.85289 108.531C9.07728 108.182 9.34245 107.901 9.64843 107.687C9.95441 107.496 10.3012 107.372 10.6786 107.316ZM10.8621 107.485C10.4644 107.485 10.087 107.631 9.75043 107.912C9.41385 108.193 9.13847 108.61 8.93449 109.149C8.7305 109.689 8.62851 110.319 8.62851 111.05C8.62851 111.838 8.7407 112.501 8.95488 113.052C9.17927 113.592 9.45465 113.997 9.80142 114.256C10.1482 114.514 10.495 114.649 10.8621 114.649C11.1579 114.649 11.4435 114.571 11.7087 114.413C11.9739 114.256 12.2186 114.031 12.4226 113.738C12.6368 113.435 12.8 113.075 12.9122 112.636C13.0346 112.209 13.0856 111.714 13.0856 111.185C13.0856 110.454 13.0244 109.869 12.902 109.431C12.7796 108.992 12.596 108.61 12.3512 108.283C12.1472 108.002 11.9127 107.8 11.6577 107.676C11.4027 107.552 11.1375 107.485 10.8621 107.485ZM11.0559 107.271V107.327C11.3109 107.35 11.5659 107.429 11.8107 107.564C12.0656 107.699 12.3002 107.912 12.5246 108.193C12.749 108.475 12.9224 108.868 13.055 109.352C13.1876 109.836 13.259 110.42 13.259 111.106C13.259 111.556 13.2182 111.984 13.1366 112.389C13.055 112.794 12.9326 113.176 12.749 113.513C12.5654 113.851 12.341 114.143 12.0656 114.368C11.7801 114.593 11.4435 114.728 11.0457 114.784V114.841C11.3721 114.818 11.6883 114.717 11.9943 114.548C12.29 114.379 12.5552 114.132 12.7898 113.806C13.0244 113.48 13.208 113.097 13.3405 112.625C13.4731 112.164 13.5445 111.646 13.5445 111.073C13.5445 110.454 13.4731 109.903 13.3303 109.419C13.1876 108.947 12.9938 108.542 12.7592 108.227C12.5144 107.912 12.2492 107.676 11.9535 107.507C11.6781 107.361 11.3721 107.282 11.0559 107.271Z" fill="white"/>
<path d="M21.1634 113.525L20.5922 114.976C20.3474 114.953 20.1638 114.931 20.0517 114.931C19.9191 114.931 19.7253 114.942 19.4907 114.976C19.2561 115.009 19.0725 115.021 18.9399 115.021C18.4198 115.021 17.9506 114.908 17.5528 114.695C17.1449 114.47 16.8185 114.177 16.5533 113.806C16.2881 113.435 16.0944 113.019 15.972 112.569C15.8496 112.119 15.7782 111.658 15.7782 111.197C15.7782 110.601 15.8496 110.049 16.0026 109.555C16.1556 109.048 16.3595 108.621 16.6349 108.261C16.9103 107.901 17.2265 107.62 17.5936 107.429C17.9608 107.238 18.3484 107.148 18.7666 107.148C18.8787 107.148 18.9399 107.148 18.9705 107.148C19.0011 107.148 19.0623 107.148 19.1541 107.159C19.2561 107.17 19.3479 107.17 19.4499 107.181C19.7967 107.215 20.0721 107.226 20.2556 107.226C20.6738 107.226 20.939 107.215 21.0716 107.181L21.1226 108.958H21.0716L20.8064 107.777C20.7248 107.755 20.5922 107.721 20.3984 107.676C20.2046 107.631 20.0109 107.597 19.8171 107.564C19.6335 107.53 19.4295 107.519 19.2255 107.519C18.6952 107.519 18.2362 107.665 17.8486 107.957C17.4713 108.25 17.1857 108.655 16.9919 109.195C16.7981 109.723 16.7063 110.342 16.7063 111.039C16.7063 111.579 16.7777 112.074 16.9103 112.524C17.0429 112.974 17.2367 113.356 17.4814 113.682C17.7262 113.997 18.0118 114.245 18.328 114.413C18.6442 114.582 18.9807 114.661 19.3275 114.661C19.6743 114.661 20.0007 114.582 20.3066 114.425C20.6126 114.267 20.8778 113.975 21.1226 113.547L21.1634 113.525ZM19.3989 107.249H18.9399C18.4912 107.249 18.073 107.35 17.6956 107.552C17.3183 107.755 17.0021 108.036 16.7369 108.396C16.4717 108.756 16.2779 109.172 16.1454 109.644C16.0128 110.117 15.9414 110.623 15.9414 111.163C15.9414 111.658 16.0128 112.13 16.1454 112.569C16.2881 113.019 16.4921 113.412 16.7573 113.772C17.0327 114.121 17.3489 114.391 17.7262 114.593C18.1036 114.785 18.5218 114.886 18.9909 114.886C19.1949 114.886 19.3275 114.886 19.3887 114.874V114.807C18.8685 114.818 18.4096 114.728 18.0118 114.526C17.6038 114.323 17.2775 114.053 17.0123 113.694C16.7471 113.334 16.5533 112.929 16.4207 112.479C16.2881 112.029 16.227 111.568 16.227 111.107C16.227 110.646 16.2779 110.196 16.3901 109.757C16.5023 109.318 16.6757 108.902 16.9103 108.542C17.1449 108.171 17.4407 107.879 17.8078 107.654C18.175 107.44 18.6136 107.328 19.1031 107.328H19.3785V107.249H19.3989Z" fill="white"/>
<path d="M25.447 114.953H22.4995V114.896L23.448 114.705C23.4888 114.267 23.5296 113.738 23.55 113.119C23.5704 112.501 23.5806 111.893 23.5806 111.297V110.409C23.5806 109.205 23.5398 108.227 23.4684 107.473L22.4995 107.293V107.237H25.447V107.293L24.4781 107.473C24.4475 107.811 24.4271 108.126 24.4169 108.396C24.4067 108.677 24.3965 109.003 24.3761 109.397C24.3659 109.79 24.3659 110.161 24.3659 110.499V111.669C24.3659 111.882 24.3761 112.231 24.3863 112.715C24.3965 113.198 24.4169 113.614 24.4373 113.952C24.4577 114.289 24.4781 114.537 24.4883 114.705L25.4572 114.896V114.953H25.447ZM23.6928 114.739H23.9681V107.428H23.6928V114.739Z" fill="white"/>
<path d="M26.4975 107.282V107.226H30.6486L30.7506 108.868H30.6894L30.414 107.586C30.1897 107.563 29.9449 107.552 29.6695 107.552C29.1697 107.552 28.7618 107.597 28.4558 107.698C28.4048 108.272 28.3742 108.913 28.3742 109.655C28.3742 110.117 28.3844 110.488 28.4048 110.769C28.8128 110.803 29.0779 110.814 29.1901 110.814C29.4859 110.814 29.7817 110.791 30.0979 110.746L30.2713 109.847H30.3426V112.096H30.2713L30.0877 111.14C29.8633 111.106 29.6083 111.084 29.3431 111.084C28.9964 111.084 28.6904 111.106 28.4048 111.151C28.3742 111.556 28.364 111.961 28.3742 112.343C28.3844 112.838 28.3844 113.255 28.3946 113.581C28.4048 113.907 28.415 114.188 28.4354 114.424C28.7516 114.559 29.1697 114.615 29.6797 114.615C29.9755 114.615 30.2203 114.604 30.4242 114.57L30.7404 113.3H30.7914L30.7098 114.953H26.5179V114.897L27.4461 114.705C27.4665 114.559 27.4869 114.346 27.5073 114.042C27.5277 113.749 27.5379 113.412 27.5481 113.052C27.5583 112.681 27.5685 112.377 27.5787 112.13C27.5889 111.882 27.5889 111.669 27.5889 111.477V110.15C27.5889 109.982 27.5889 109.745 27.5787 109.43C27.5685 109.115 27.5583 108.801 27.5481 108.463C27.5277 108.126 27.5073 107.788 27.4767 107.462L26.4975 107.282ZM27.6806 114.739H27.9458V107.428H27.6806V114.739Z" fill="white"/>
<path d="M32.1071 107.226H35.3097C35.9012 107.226 36.4112 107.338 36.8294 107.575C37.2475 107.811 37.5739 108.114 37.8187 108.497C38.0635 108.879 38.2369 109.284 38.3389 109.723C38.4408 110.161 38.4918 110.611 38.4918 111.073C38.4918 111.624 38.4204 112.141 38.2879 112.625C38.1553 113.097 37.9513 113.513 37.6963 113.862C37.4413 114.211 37.1353 114.48 36.7886 114.672C36.4418 114.863 36.0644 114.953 35.6463 114.953H32.0867V114.897L33.0353 114.717C33.0761 114.413 33.1169 113.918 33.1373 113.232C33.1577 112.546 33.178 111.995 33.178 111.601V110.218C33.178 109.194 33.1475 108.283 33.0761 107.473L32.1071 107.282V107.226ZM33.2902 114.739H33.5656V107.428H33.2902V114.739ZM33.9532 109.869V112.951C33.9532 113.401 33.9736 113.862 34.0042 114.334C34.1674 114.435 34.3612 114.514 34.5651 114.57C34.7793 114.615 34.9833 114.649 35.1975 114.649C35.4831 114.649 35.7788 114.57 36.0542 114.424C36.3398 114.278 36.5948 114.053 36.8192 113.761C37.0435 113.468 37.2271 113.097 37.3699 112.647C37.5127 112.197 37.5739 111.68 37.5739 111.095C37.5739 110.488 37.5025 109.959 37.3597 109.509C37.2169 109.059 37.013 108.688 36.758 108.407C36.503 108.114 36.2072 107.912 35.8808 107.766C35.5545 107.631 35.2077 107.563 34.8405 107.563C34.5447 107.563 34.2796 107.608 34.045 107.698C34.0246 107.833 34.0144 108.025 34.0042 108.272C33.994 108.519 33.9736 108.812 33.9634 109.149C33.9634 109.464 33.9532 109.712 33.9532 109.869ZM34.6977 107.35V107.406C35.0751 107.406 35.4117 107.451 35.7075 107.541C36.0032 107.631 36.2582 107.755 36.4622 107.901C36.6662 108.058 36.8396 108.227 36.9926 108.429C37.1455 108.632 37.2781 108.879 37.3903 109.149C37.5025 109.419 37.5841 109.723 37.6555 110.049C37.7167 110.375 37.7473 110.735 37.7473 111.095C37.7473 111.916 37.6147 112.602 37.3597 113.153C37.1047 113.704 36.7784 114.121 36.401 114.379C36.0236 114.638 35.6667 114.773 35.3199 114.773H35.0241V114.829H35.3199C35.8808 114.829 36.3806 114.66 36.7886 114.323C37.2067 113.986 37.5127 113.536 37.7269 112.962C37.9411 112.388 38.0431 111.781 38.0431 111.118C38.0431 110.521 37.9717 110.004 37.8187 109.532C37.6657 109.071 37.4719 108.688 37.2475 108.384C36.758 107.698 35.9828 107.35 34.9221 107.35H34.6977Z" fill="white"/>
<path d="M43.2548 107.148L44.9377 112.603C45.1519 113.311 45.4069 114.02 45.7026 114.717L46.3452 114.897V114.953H43.5914V114.897L44.6521 114.717C44.6113 114.368 44.5399 113.986 44.4379 113.581C44.3359 113.176 44.2136 112.816 44.0912 112.513H41.6536C41.5516 112.872 41.47 113.165 41.3986 113.39C41.3272 113.615 41.2762 113.851 41.215 114.098C41.1538 114.346 41.113 114.548 41.1028 114.717L42.1227 114.897V114.953H39.9503V114.897L40.6642 114.717C40.8376 114.312 41.0008 113.862 41.1436 113.367L42.9488 107.148H43.2548ZM42.8469 108.632C42.7755 108.823 42.6837 109.093 42.5715 109.453C42.4593 109.813 42.3471 110.151 42.2553 110.466C42.1635 110.78 42.0615 111.107 41.9595 111.467C41.8575 111.826 41.7861 112.051 41.7555 112.164C41.9085 112.198 42.0819 112.209 42.2859 112.22C42.4899 112.231 42.6837 112.243 42.8673 112.243C43.3262 112.243 43.6934 112.22 43.9892 112.164C43.8872 111.77 43.724 111.208 43.4894 110.466C43.2548 109.723 43.0406 109.116 42.8469 108.632ZM42.9081 108.182L44.9275 114.74H45.1927L43.0406 107.732L42.9081 108.182Z" fill="white"/>
<path d="M47.4569 107.226H50.6594C51.251 107.226 51.7609 107.338 52.1791 107.575C52.5973 107.811 52.9237 108.114 53.1684 108.497C53.4132 108.879 53.5866 109.284 53.6886 109.723C53.7906 110.161 53.8416 110.611 53.8416 111.073C53.8416 111.624 53.7702 112.141 53.6376 112.625C53.505 113.097 53.301 113.513 53.046 113.862C52.7911 114.211 52.4851 114.48 52.1383 114.672C51.7915 114.863 51.4142 114.953 50.996 114.953H47.4059V114.897L48.3544 114.717C48.3952 114.413 48.436 113.918 48.4564 113.232C48.4768 112.546 48.4972 111.995 48.4972 111.601V110.218C48.4972 109.194 48.4666 108.283 48.3952 107.473L47.4263 107.282V107.226H47.4569ZM48.64 114.739H48.9154V107.428H48.64V114.739ZM49.3029 109.869V112.951C49.3029 113.401 49.3233 113.862 49.3539 114.334C49.5171 114.435 49.7109 114.514 49.9149 114.57C50.1291 114.615 50.3331 114.649 50.5472 114.649C50.8328 114.649 51.1286 114.57 51.404 114.424C51.6896 114.278 51.9445 114.053 52.1689 113.761C52.3933 113.468 52.5769 113.097 52.7197 112.647C52.8625 112.197 52.9237 111.68 52.9237 111.095C52.9237 110.488 52.8523 109.959 52.7095 109.509C52.5667 109.059 52.3627 108.688 52.1077 108.407C51.8527 108.114 51.557 107.912 51.2306 107.766C50.9042 107.631 50.5574 107.563 50.1903 107.563C49.8945 107.563 49.6293 107.608 49.3947 107.698C49.3743 107.833 49.3641 108.025 49.3539 108.272C49.3437 108.519 49.3233 108.812 49.3131 109.149C49.3131 109.464 49.3029 109.712 49.3029 109.869ZM50.0475 107.35V107.406C50.4248 107.406 50.7614 107.451 51.0572 107.541C51.353 107.631 51.608 107.755 51.8119 107.901C52.0159 108.058 52.1893 108.227 52.3423 108.429C52.4953 108.632 52.6279 108.879 52.7401 109.149C52.8523 109.419 52.9339 109.723 53.0052 110.049C53.0664 110.375 53.097 110.735 53.097 111.095C53.097 111.916 52.9645 112.602 52.7095 113.153C52.4545 113.704 52.1281 114.121 51.7508 114.379C51.3734 114.638 51.0164 114.773 50.6696 114.773H50.3739V114.829H50.6696C51.2306 114.829 51.7303 114.66 52.1383 114.323C52.5565 113.986 52.8625 113.536 53.0766 112.962C53.2908 112.388 53.3928 111.781 53.3928 111.118C53.3928 110.521 53.3214 110.004 53.1684 109.532C53.0155 109.071 52.8217 108.688 52.5973 108.384C52.1077 107.698 51.3326 107.35 50.2719 107.35H50.0475Z" fill="white"/>
<path d="M55.2797 107.282V107.226H59.4308L59.5328 108.868H59.4716L59.1962 107.586C58.9718 107.563 58.7271 107.552 58.4517 107.552C57.9519 107.552 57.5439 107.597 57.238 107.698C57.187 108.272 57.1564 108.913 57.1564 109.655C57.1564 110.117 57.1666 110.488 57.187 110.769C57.5949 110.803 57.8601 110.814 57.9723 110.814C58.2681 110.814 58.5639 110.791 58.88 110.746L59.0534 109.847H59.1248V112.096H59.0534L58.8698 111.14C58.6455 111.106 58.3905 111.084 58.1253 111.084C57.7785 111.084 57.4726 111.106 57.187 111.151C57.1564 111.556 57.1462 111.961 57.1564 112.343C57.1666 112.838 57.1666 113.255 57.1768 113.581C57.187 113.907 57.1972 114.188 57.2176 114.424C57.5337 114.559 57.9519 114.615 58.4619 114.615C58.7577 114.615 59.0126 114.604 59.2064 114.57L59.5226 113.3H59.5736L59.492 114.953H55.3001V114.897L56.2283 114.705C56.2486 114.559 56.269 114.346 56.2792 114.042C56.2996 113.749 56.3098 113.412 56.32 113.052C56.3302 112.681 56.3404 112.377 56.3506 112.13C56.3608 111.882 56.3608 111.669 56.3608 111.477V110.15C56.3608 109.982 56.3608 109.745 56.3506 109.43C56.3404 109.115 56.3302 108.801 56.32 108.463C56.2996 108.126 56.2792 107.788 56.2486 107.462L55.2797 107.282ZM56.4628 114.739H56.728V107.428H56.4628V114.739Z" fill="white"/>
<path d="M64.7446 107.226H67.9471C68.5387 107.226 69.0486 107.338 69.4668 107.575C69.885 107.811 70.2114 108.114 70.4561 108.497C70.7009 108.879 70.8743 109.284 70.9763 109.723C71.0783 110.161 71.1293 110.611 71.1293 111.073C71.1293 111.624 71.0579 112.141 70.9253 112.625C70.7927 113.097 70.5887 113.513 70.3337 113.862C70.0788 114.211 69.7728 114.48 69.426 114.672C69.0792 114.863 68.7019 114.953 68.2837 114.953H64.6936V114.897L65.6421 114.717C65.6829 114.413 65.7237 113.918 65.7441 113.232C65.7645 112.546 65.7849 111.995 65.7849 111.601V110.218C65.7849 109.194 65.7543 108.283 65.6829 107.473L64.714 107.282V107.226H64.7446ZM65.9175 114.739H66.1929V107.428H65.9175V114.739ZM66.5906 109.869V112.951C66.5906 113.401 66.611 113.862 66.6416 114.334C66.8048 114.435 66.9986 114.514 67.2026 114.57C67.4168 114.615 67.6207 114.649 67.8349 114.649C68.1205 114.649 68.4163 114.57 68.6917 114.424C68.9772 114.278 69.2322 114.053 69.4566 113.761C69.681 113.468 69.8646 113.097 70.0074 112.647C70.1502 112.197 70.2114 111.68 70.2114 111.095C70.2114 110.488 70.1399 109.959 69.9972 109.509C69.8544 109.059 69.6504 108.688 69.3954 108.407C69.1404 108.114 68.8447 107.912 68.5183 107.766C68.1919 107.631 67.8451 107.563 67.478 107.563C67.1822 107.563 66.917 107.608 66.6824 107.698C66.662 107.833 66.6518 108.025 66.6416 108.272C66.6314 108.519 66.611 108.812 66.6008 109.149C66.5906 109.464 66.5906 109.712 66.5906 109.869ZM67.3352 107.35V107.406C67.7125 107.406 68.0491 107.451 68.3449 107.541C68.6407 107.631 68.8957 107.755 69.0996 107.901C69.3036 108.058 69.477 108.227 69.63 108.429C69.783 108.632 69.9156 108.879 70.0278 109.149C70.1399 109.419 70.2216 109.723 70.2929 110.049C70.3541 110.375 70.3847 110.735 70.3847 111.095C70.3847 111.916 70.2521 112.602 69.9972 113.153C69.7422 113.704 69.4158 114.121 69.0384 114.379C68.6611 114.638 68.3041 114.773 67.9573 114.773H67.6615V114.829H67.9573C68.5183 114.829 69.018 114.66 69.426 114.323C69.8442 113.986 70.1501 113.536 70.3643 112.962C70.5785 112.388 70.6805 111.781 70.6805 111.118C70.6805 110.521 70.6091 110.004 70.4561 109.532C70.3031 109.071 70.1094 108.688 69.885 108.384C69.3954 107.698 68.6203 107.35 67.5595 107.35H67.3352Z" fill="white"/>
<path d="M72.5674 107.282V107.226H76.7185L76.8205 108.868H76.7593L76.4839 107.586C76.2595 107.563 76.0147 107.552 75.7394 107.552C75.2396 107.552 74.8316 107.597 74.5257 107.698C74.4747 108.272 74.4441 108.913 74.4441 109.655C74.4441 110.117 74.4543 110.488 74.4747 110.769C74.8826 110.803 75.1478 110.814 75.26 110.814C75.5558 110.814 75.8516 110.791 76.1677 110.746L76.3411 109.847H76.4125V112.096H76.3411L76.1575 111.14C75.9332 111.106 75.6782 111.084 75.413 111.084C75.0662 111.084 74.7602 111.106 74.4747 111.151C74.4441 111.556 74.4339 111.961 74.4441 112.343C74.4543 112.838 74.4543 113.255 74.4645 113.581C74.4747 113.907 74.4849 114.188 74.5053 114.424C74.8214 114.559 75.2396 114.615 75.7496 114.615C76.0453 114.615 76.3003 114.604 76.4941 114.57L76.8103 113.3H76.8613L76.7797 114.953H72.5878V114.897L73.5159 114.705C73.5363 114.559 73.5567 114.346 73.5771 114.042C73.5975 113.749 73.6077 113.412 73.6179 113.052C73.6281 112.681 73.6383 112.377 73.6485 112.13C73.6587 111.882 73.6587 111.669 73.6587 111.477V110.15C73.6587 109.982 73.6587 109.745 73.6485 109.43C73.6383 109.115 73.6281 108.801 73.6179 108.463C73.5975 108.126 73.5771 107.788 73.5465 107.462L72.5674 107.282ZM73.7505 114.739H74.0157V107.428H73.7505V114.739Z" fill="white"/>
<path d="M85.296 107.148L86.9789 112.603C87.1931 113.311 87.448 114.02 87.7438 114.717L88.3863 114.897V114.953H85.6326V114.897L86.6933 114.717C86.6525 114.368 86.5811 113.986 86.4791 113.581C86.3771 113.176 86.2547 112.816 86.1323 112.513H83.6947C83.5927 112.872 83.5111 113.165 83.4397 113.39C83.3785 113.615 83.3173 113.851 83.2561 114.098C83.195 114.346 83.1542 114.548 83.144 114.717L84.1639 114.897V114.953H81.9915V114.897L82.7054 114.717C82.8788 114.312 83.042 113.862 83.1848 113.367L84.99 107.148H85.296ZM84.8778 108.632C84.8064 108.823 84.7146 109.093 84.6025 109.453C84.4903 109.813 84.3781 110.151 84.2863 110.466C84.1945 110.78 84.0925 111.107 83.9905 111.467C83.8885 111.826 83.8171 112.051 83.7865 112.164C83.9395 112.198 84.1129 112.209 84.3169 112.22C84.5209 112.231 84.7146 112.243 84.8982 112.243C85.3572 112.243 85.7244 112.22 86.0201 112.164C85.9181 111.77 85.755 111.208 85.5204 110.466C85.296 109.723 85.0716 109.116 84.8778 108.632ZM84.939 108.182L86.9585 114.74H87.2236L85.0716 107.732L84.939 108.182Z" fill="white"/>
<path d="M89.4879 107.226H92.6904C93.2922 107.226 93.7919 107.338 94.2101 107.575C94.6283 107.811 94.9547 108.114 95.1994 108.497C95.4442 108.879 95.6176 109.284 95.7196 109.723C95.8216 110.161 95.8828 110.611 95.8828 111.073C95.8828 111.624 95.8114 112.141 95.6788 112.625C95.5462 113.097 95.3422 113.513 95.0872 113.862C94.8323 114.211 94.5263 114.48 94.1795 114.672C93.8327 114.863 93.4554 114.953 93.0372 114.953H89.4471V114.897L90.3956 114.717C90.4364 114.413 90.4772 113.918 90.4976 113.232C90.518 112.546 90.5384 111.995 90.5384 111.601V110.218C90.5384 109.194 90.5078 108.283 90.4364 107.473L89.4675 107.282V107.226H89.4879ZM90.671 114.739H90.9464V107.428H90.671V114.739ZM91.3441 109.869V112.951C91.3441 113.401 91.3645 113.862 91.3951 114.334C91.5583 114.435 91.7521 114.514 91.9561 114.57C92.1703 114.615 92.3743 114.649 92.5884 114.649C92.874 114.649 93.1698 114.57 93.4452 114.424C93.7307 114.278 93.9857 114.053 94.2101 113.761C94.4345 113.468 94.6181 113.097 94.7609 112.647C94.9037 112.197 94.9649 111.68 94.9649 111.095C94.9649 110.488 94.8935 109.959 94.7507 109.509C94.6079 109.059 94.4039 108.688 94.1489 108.407C93.8939 108.114 93.5982 107.912 93.2718 107.766C92.9454 107.631 92.5986 107.563 92.2315 107.563C91.9357 107.563 91.6705 107.608 91.4359 107.698C91.4155 107.833 91.4053 108.025 91.3951 108.272C91.3849 108.519 91.3645 108.812 91.3543 109.149C91.3441 109.464 91.3441 109.712 91.3441 109.869ZM92.0785 107.35V107.406C92.4559 107.406 92.7924 107.451 93.0882 107.541C93.384 107.631 93.639 107.755 93.8429 107.901C94.0469 108.058 94.2203 108.227 94.3733 108.429C94.5263 108.632 94.6589 108.879 94.7711 109.149C94.8833 109.419 94.9649 109.723 95.0362 110.049C95.0974 110.375 95.128 110.735 95.128 111.095C95.128 111.916 94.9955 112.602 94.7405 113.153C94.4753 113.704 94.1591 114.121 93.7817 114.379C93.4044 114.638 93.0474 114.773 92.7006 114.773H92.4048V114.829H92.7006C93.2616 114.829 93.7614 114.66 94.1693 114.323C94.5875 113.986 94.8935 113.536 95.1076 112.962C95.3218 112.388 95.4238 111.781 95.4238 111.118C95.4238 110.521 95.3524 110.004 95.1994 109.532C95.0464 109.071 94.8527 108.688 94.6283 108.384C94.1387 107.698 93.3636 107.35 92.3029 107.35H92.0785Z" fill="white"/>
<path d="M100.054 107.282L99.0343 107.473C99.177 108.171 99.4116 109.003 99.7176 109.993L100.258 111.702C100.381 112.096 100.554 112.591 100.789 113.198C100.88 112.973 100.993 112.681 101.125 112.31C101.258 111.939 101.37 111.59 101.462 111.275L102.063 109.318C102.298 108.531 102.461 107.923 102.563 107.473L101.38 107.282V107.226H103.695V107.271L102.981 107.473C102.828 107.788 102.604 108.429 102.308 109.374L100.982 113.637C100.799 114.233 100.656 114.739 100.554 115.167H100.503C100.35 114.582 100.197 114.031 100.024 113.513L98.7895 109.599C98.5549 108.868 98.2999 108.148 98.0143 107.462L97.331 107.282V107.226H100.054V107.282ZM98.2285 107.428L100.462 114.492L100.595 114.064L98.5039 107.428H98.2285Z" fill="white"/>
<path d="M108.183 107.114C108.734 107.114 109.213 107.237 109.621 107.485C110.029 107.732 110.355 108.058 110.621 108.463C110.876 108.868 111.069 109.296 111.192 109.757C111.314 110.207 111.375 110.645 111.375 111.073C111.375 111.556 111.304 112.017 111.171 112.479C111.039 112.94 110.835 113.356 110.57 113.738C110.304 114.121 109.978 114.424 109.58 114.649C109.182 114.874 108.744 114.987 108.265 114.987C107.561 114.987 106.969 114.784 106.49 114.368C106.011 113.963 105.643 113.446 105.419 112.85C105.184 112.242 105.072 111.658 105.072 111.073C105.072 110.567 105.144 110.072 105.297 109.588C105.439 109.116 105.654 108.677 105.939 108.306C106.215 107.923 106.551 107.631 106.939 107.417C107.306 107.226 107.724 107.114 108.183 107.114ZM108.02 107.316V107.26C107.653 107.26 107.306 107.372 106.959 107.575C106.612 107.777 106.306 108.07 106.051 108.418C105.786 108.778 105.582 109.183 105.439 109.633C105.297 110.083 105.215 110.567 105.215 111.061C105.215 111.669 105.337 112.265 105.582 112.85C105.827 113.423 106.174 113.896 106.602 114.256C107.041 114.616 107.51 114.807 108.03 114.829V114.773C107.53 114.717 107.081 114.503 106.694 114.132C106.306 113.772 106.011 113.311 105.817 112.771C105.613 112.231 105.511 111.669 105.511 111.084C105.511 110.612 105.572 110.15 105.684 109.712C105.796 109.273 105.97 108.879 106.194 108.531C106.419 108.182 106.684 107.901 106.99 107.687C107.306 107.496 107.642 107.372 108.02 107.316ZM108.203 107.485C107.795 107.485 107.428 107.631 107.092 107.912C106.745 108.193 106.48 108.61 106.276 109.149C106.072 109.689 105.97 110.319 105.97 111.05C105.97 111.838 106.082 112.501 106.296 113.052C106.51 113.592 106.796 113.997 107.143 114.256C107.489 114.514 107.836 114.649 108.203 114.649C108.499 114.649 108.785 114.571 109.05 114.413C109.315 114.256 109.56 114.031 109.764 113.738C109.978 113.435 110.141 113.075 110.253 112.636C110.366 112.209 110.427 111.714 110.427 111.185C110.427 110.454 110.366 109.869 110.243 109.431C110.121 108.992 109.937 108.61 109.692 108.283C109.488 108.002 109.254 107.8 108.999 107.676C108.754 107.552 108.479 107.485 108.203 107.485ZM108.397 107.271V107.327C108.652 107.35 108.897 107.429 109.152 107.564C109.407 107.699 109.641 107.912 109.866 108.193C110.09 108.475 110.264 108.868 110.406 109.352C110.539 109.836 110.61 110.42 110.61 111.106C110.61 111.556 110.57 111.984 110.488 112.389C110.406 112.794 110.284 113.176 110.111 113.513C109.937 113.851 109.703 114.143 109.427 114.368C109.142 114.593 108.805 114.728 108.407 114.784V114.841C108.734 114.818 109.05 114.717 109.356 114.548C109.652 114.379 109.917 114.132 110.151 113.806C110.386 113.48 110.57 113.097 110.702 112.625C110.835 112.164 110.906 111.646 110.906 111.073C110.906 110.454 110.835 109.903 110.692 109.419C110.549 108.947 110.355 108.542 110.121 108.227C109.876 107.912 109.611 107.676 109.315 107.507C109.019 107.361 108.724 107.282 108.397 107.271Z" fill="white"/>
<path d="M119.076 112.04L118.454 112.231C118.423 112.49 118.392 112.816 118.372 113.221C118.352 113.626 118.341 113.986 118.341 114.301C118.046 114.458 117.801 114.582 117.607 114.66C117.424 114.75 117.189 114.818 116.934 114.885C116.669 114.953 116.393 114.987 116.077 114.987C115.567 114.987 115.118 114.874 114.721 114.66C114.333 114.447 114.007 114.154 113.762 113.783C113.507 113.412 113.323 113.007 113.201 112.557C113.079 112.107 113.017 111.657 113.017 111.196C113.017 110.656 113.089 110.15 113.221 109.655C113.354 109.161 113.558 108.733 113.813 108.339C114.078 107.957 114.394 107.653 114.772 107.428C115.149 107.204 115.588 107.102 116.067 107.102C116.138 107.102 116.2 107.102 116.24 107.102C116.281 107.102 116.332 107.114 116.404 107.114C116.465 107.114 116.557 107.125 116.669 107.125C116.985 107.147 117.281 107.17 117.566 107.17C117.831 107.17 118.046 107.159 118.209 107.136L118.26 108.902H118.209L117.964 107.721C117.862 107.687 117.74 107.653 117.597 107.608C117.444 107.575 117.281 107.541 117.097 107.507C116.914 107.473 116.71 107.462 116.495 107.462C116.036 107.462 115.649 107.563 115.312 107.766C114.976 107.968 114.711 108.227 114.507 108.564C114.303 108.902 114.16 109.273 114.058 109.678C113.966 110.083 113.915 110.499 113.915 110.926C113.915 111.41 113.976 111.86 114.109 112.287C114.241 112.715 114.425 113.097 114.66 113.423C114.904 113.749 115.18 114.008 115.496 114.199C115.812 114.391 116.159 114.481 116.516 114.481C116.608 114.481 116.71 114.469 116.801 114.458C116.903 114.447 117.005 114.424 117.107 114.402C117.209 114.379 117.332 114.357 117.464 114.323C117.515 114.008 117.546 113.682 117.546 113.333C117.546 112.85 117.515 112.467 117.464 112.197L116.455 112.006V111.95H119.055V112.04H119.076ZM116.546 107.305V107.26C116.373 107.237 116.22 107.226 116.077 107.226C115.659 107.226 115.271 107.327 114.915 107.518C114.558 107.721 114.252 107.991 113.997 108.351C113.742 108.711 113.538 109.127 113.395 109.622C113.252 110.117 113.181 110.634 113.181 111.196C113.181 111.849 113.303 112.456 113.538 113.018C113.782 113.581 114.129 114.031 114.578 114.357C115.027 114.683 115.557 114.852 116.169 114.852C116.281 114.852 116.444 114.84 116.638 114.807V114.762C116.067 114.762 115.577 114.66 115.169 114.447C114.762 114.233 114.425 113.941 114.18 113.57C113.925 113.198 113.742 112.793 113.629 112.355C113.517 111.916 113.456 111.478 113.456 111.039C113.456 110.499 113.517 109.993 113.65 109.543C113.782 109.082 113.966 108.688 114.211 108.351C114.456 108.013 114.772 107.755 115.139 107.575C115.516 107.383 115.934 107.293 116.404 107.293H116.546V107.305ZM117.678 112.197V114.267L117.944 114.132V112.197H117.678Z" fill="white"/>
<path d="M123.451 107.148L125.134 112.603C125.348 113.311 125.603 114.02 125.899 114.717L126.542 114.897V114.953H123.788V114.897L124.849 114.717C124.808 114.368 124.736 113.986 124.634 113.581C124.532 113.176 124.41 112.816 124.288 112.513H121.85C121.748 112.872 121.666 113.165 121.595 113.39C121.534 113.615 121.473 113.851 121.411 114.098C121.35 114.346 121.309 114.548 121.299 114.717L122.319 114.897V114.953H120.147V114.897L120.861 114.717C121.034 114.312 121.197 113.862 121.34 113.367L123.145 107.148H123.451ZM123.043 108.632C122.972 108.823 122.88 109.093 122.768 109.453C122.656 109.813 122.554 110.151 122.452 110.466C122.36 110.78 122.258 111.107 122.156 111.467C122.054 111.826 121.983 112.051 121.952 112.164C122.105 112.198 122.289 112.209 122.493 112.22C122.697 112.231 122.89 112.243 123.074 112.243C123.533 112.243 123.9 112.22 124.186 112.164C124.084 111.77 123.92 111.208 123.686 110.466C123.451 109.723 123.237 109.116 123.043 108.632ZM123.105 108.182L125.124 114.74H125.389L123.237 107.732L123.105 108.182Z" fill="white"/>
<path d="M127.653 107.226H130.856C131.458 107.226 131.957 107.338 132.376 107.575C132.794 107.811 133.12 108.114 133.365 108.497C133.61 108.879 133.783 109.284 133.885 109.723C133.987 110.161 134.038 110.611 134.038 111.073C134.038 111.624 133.967 112.141 133.834 112.625C133.702 113.097 133.498 113.513 133.243 113.862C132.988 114.211 132.682 114.48 132.335 114.672C131.988 114.863 131.611 114.953 131.192 114.953H127.602V114.897L128.551 114.717C128.592 114.413 128.633 113.918 128.653 113.232C128.673 112.546 128.694 111.995 128.694 111.601V110.218C128.694 109.194 128.663 108.283 128.592 107.473L127.623 107.282V107.226H127.653ZM128.826 114.739H129.102V107.428H128.826V114.739ZM129.499 109.869V112.951C129.499 113.401 129.52 113.862 129.55 114.334C129.714 114.435 129.907 114.514 130.111 114.57C130.326 114.615 130.53 114.649 130.744 114.649C131.029 114.649 131.325 114.57 131.6 114.424C131.886 114.278 132.141 114.053 132.365 113.761C132.59 113.468 132.773 113.097 132.916 112.647C133.059 112.197 133.12 111.68 133.12 111.095C133.12 110.488 133.049 109.959 132.906 109.509C132.763 109.059 132.559 108.688 132.304 108.407C132.049 108.114 131.753 107.912 131.427 107.766C131.101 107.631 130.754 107.563 130.387 107.563C130.091 107.563 129.826 107.608 129.591 107.698C129.571 107.833 129.561 108.025 129.55 108.272C129.54 108.519 129.52 108.812 129.51 109.149C129.51 109.464 129.499 109.712 129.499 109.869ZM130.244 107.35V107.406C130.621 107.406 130.958 107.451 131.254 107.541C131.549 107.631 131.804 107.755 132.008 107.901C132.212 108.058 132.386 108.227 132.539 108.429C132.692 108.632 132.824 108.879 132.937 109.149C133.049 109.419 133.13 109.723 133.202 110.049C133.263 110.375 133.294 110.735 133.294 111.095C133.294 111.916 133.161 112.602 132.906 113.153C132.641 113.704 132.325 114.121 131.947 114.379C131.57 114.638 131.213 114.773 130.866 114.773H130.57V114.829H130.866C131.437 114.829 131.927 114.66 132.335 114.323C132.753 113.986 133.059 113.536 133.273 112.962C133.487 112.388 133.589 111.781 133.589 111.118C133.589 110.521 133.518 110.004 133.365 109.532C133.212 109.071 133.018 108.688 132.794 108.384C132.304 107.698 131.529 107.35 130.468 107.35H130.244Z" fill="white"/>
<path d="M138.872 107.114C139.423 107.114 139.903 107.237 140.311 107.485C140.719 107.732 141.045 108.058 141.31 108.463C141.565 108.868 141.759 109.296 141.881 109.757C142.004 110.207 142.065 110.645 142.065 111.073C142.065 111.556 141.993 112.017 141.861 112.479C141.728 112.94 141.524 113.356 141.259 113.738C140.994 114.121 140.668 114.424 140.27 114.649C139.872 114.874 139.433 114.987 138.954 114.987C138.261 114.987 137.669 114.784 137.179 114.368C136.7 113.963 136.333 113.446 136.108 112.85C135.874 112.242 135.762 111.658 135.762 111.073C135.762 110.567 135.833 110.072 135.986 109.588C136.129 109.116 136.343 108.677 136.629 108.306C136.904 107.923 137.241 107.631 137.628 107.417C137.995 107.226 138.424 107.114 138.872 107.114ZM138.719 107.316V107.26C138.352 107.26 138.006 107.372 137.659 107.575C137.312 107.777 137.006 108.07 136.751 108.418C136.486 108.778 136.282 109.183 136.139 109.633C135.996 110.083 135.925 110.567 135.925 111.061C135.925 111.669 136.047 112.265 136.292 112.85C136.537 113.423 136.873 113.896 137.312 114.256C137.751 114.616 138.22 114.807 138.74 114.829V114.773C138.24 114.717 137.791 114.503 137.404 114.132C137.016 113.772 136.72 113.311 136.516 112.771C136.312 112.231 136.221 111.669 136.221 111.084C136.221 110.612 136.282 110.15 136.394 109.712C136.506 109.273 136.68 108.879 136.904 108.531C137.128 108.182 137.394 107.901 137.7 107.687C137.995 107.496 138.342 107.372 138.719 107.316ZM138.893 107.485C138.485 107.485 138.118 107.631 137.781 107.912C137.434 108.193 137.169 108.61 136.965 109.149C136.761 109.689 136.659 110.319 136.659 111.05C136.659 111.838 136.771 112.501 136.986 113.052C137.21 113.592 137.485 113.997 137.832 114.256C138.179 114.514 138.526 114.649 138.893 114.649C139.189 114.649 139.474 114.571 139.739 114.413C140.005 114.256 140.249 114.031 140.453 113.738C140.668 113.435 140.831 113.075 140.943 112.636C141.055 112.209 141.116 111.714 141.116 111.185C141.116 110.454 141.055 109.869 140.933 109.431C140.81 108.992 140.627 108.61 140.382 108.283C140.178 108.002 139.943 107.8 139.688 107.676C139.444 107.552 139.178 107.485 138.893 107.485ZM139.097 107.271V107.327C139.352 107.35 139.597 107.429 139.852 107.564C140.107 107.699 140.341 107.912 140.566 108.193C140.79 108.475 140.963 108.868 141.106 109.352C141.239 109.836 141.31 110.42 141.31 111.106C141.31 111.556 141.269 111.984 141.198 112.389C141.116 112.794 140.994 113.176 140.81 113.513C140.627 113.851 140.402 114.143 140.127 114.368C139.841 114.593 139.505 114.728 139.107 114.784V114.841C139.433 114.818 139.75 114.717 140.056 114.548C140.351 114.379 140.617 114.132 140.851 113.806C141.086 113.48 141.269 113.097 141.402 112.625C141.534 112.164 141.606 111.646 141.606 111.073C141.606 110.454 141.534 109.903 141.392 109.419C141.249 108.947 141.065 108.542 140.821 108.227C140.576 107.912 140.311 107.676 140.015 107.507C139.719 107.361 139.413 107.282 139.097 107.271Z" fill="white"/>
<path d="M143.595 113.109L143.89 114.402C144.043 114.492 144.217 114.571 144.411 114.627C144.615 114.683 144.778 114.706 144.931 114.706C145.125 114.706 145.308 114.661 145.471 114.571C145.635 114.481 145.767 114.368 145.869 114.222C145.971 114.087 146.053 113.918 146.104 113.75C146.155 113.57 146.185 113.401 146.185 113.232C146.185 112.884 146.094 112.591 145.92 112.355C145.747 112.119 145.451 111.815 145.043 111.433C144.635 111.062 144.339 110.747 144.156 110.499C143.992 110.274 143.88 110.061 143.799 109.836C143.717 109.611 143.686 109.363 143.686 109.093C143.686 108.79 143.748 108.486 143.87 108.194C143.992 107.89 144.176 107.642 144.431 107.451C144.686 107.249 145.002 107.148 145.369 107.148C145.543 107.148 145.716 107.159 145.91 107.181C146.104 107.204 146.236 107.215 146.308 107.215C146.369 107.215 146.43 107.204 146.481 107.204C146.532 107.204 146.583 107.193 146.614 107.193C146.644 107.181 146.685 107.181 146.716 107.17L146.736 108.97H146.685L146.44 107.755C146.073 107.541 145.767 107.429 145.492 107.429C145.267 107.429 145.074 107.485 144.89 107.597C144.717 107.71 144.574 107.867 144.472 108.07C144.37 108.272 144.329 108.497 144.329 108.745C144.329 109.003 144.39 109.24 144.523 109.465C144.655 109.678 144.839 109.892 145.063 110.094C145.298 110.297 145.543 110.522 145.808 110.758C146.073 110.994 146.287 111.208 146.44 111.433C146.746 111.849 146.909 112.333 146.909 112.884C146.909 113.199 146.848 113.514 146.726 113.84C146.603 114.166 146.41 114.447 146.124 114.672C145.839 114.897 145.471 115.009 145.023 115.009C144.859 115.009 144.666 114.998 144.441 114.976C144.217 114.953 144.043 114.942 143.941 114.942C143.89 114.942 143.85 114.942 143.829 114.953C143.799 114.953 143.758 114.964 143.707 114.964C143.646 114.976 143.615 114.976 143.605 114.976L143.544 113.12H143.595V113.109ZM145.502 107.238H145.38C145.094 107.238 144.829 107.316 144.584 107.474C144.339 107.631 144.156 107.845 144.013 108.137C143.87 108.419 143.809 108.745 143.809 109.105C143.809 109.555 143.952 109.971 144.237 110.364C144.36 110.533 144.482 110.668 144.594 110.78C144.706 110.893 144.87 111.05 145.094 111.253C145.318 111.455 145.492 111.624 145.624 111.759C145.757 111.894 145.869 112.018 145.951 112.141C146.185 112.456 146.297 112.816 146.297 113.199C146.297 113.469 146.247 113.727 146.134 113.975C146.022 114.222 145.869 114.425 145.665 114.582C145.461 114.74 145.227 114.818 144.951 114.818V114.874C145.267 114.886 145.553 114.818 145.798 114.65C146.043 114.481 146.236 114.267 146.369 113.997C146.501 113.727 146.563 113.446 146.563 113.154C146.563 112.906 146.532 112.681 146.471 112.468C146.41 112.265 146.297 112.051 146.145 111.838C146.053 111.714 145.89 111.545 145.655 111.32C145.42 111.107 145.176 110.882 144.941 110.657C144.696 110.432 144.523 110.252 144.411 110.106C144.135 109.746 144.003 109.341 144.003 108.902C144.003 108.509 144.125 108.149 144.37 107.822C144.615 107.485 144.992 107.316 145.492 107.294V107.238H145.502Z" fill="white"/>
<path d="M152.254 113.109L152.55 114.402C152.692 114.492 152.866 114.571 153.07 114.627C153.274 114.683 153.437 114.706 153.59 114.706C153.784 114.706 153.967 114.661 154.12 114.571C154.283 114.481 154.416 114.368 154.518 114.222C154.62 114.087 154.702 113.918 154.753 113.75C154.804 113.57 154.834 113.401 154.834 113.232C154.834 112.884 154.753 112.591 154.569 112.355C154.396 112.119 154.1 111.815 153.692 111.433C153.284 111.062 152.988 110.747 152.805 110.499C152.641 110.274 152.529 110.061 152.448 109.836C152.366 109.611 152.335 109.363 152.335 109.093C152.335 108.79 152.397 108.486 152.519 108.194C152.641 107.89 152.825 107.642 153.08 107.451C153.335 107.249 153.651 107.148 154.018 107.148C154.181 107.148 154.365 107.159 154.559 107.181C154.753 107.204 154.885 107.215 154.957 107.215C155.018 107.215 155.079 107.204 155.13 107.204C155.181 107.204 155.232 107.193 155.263 107.193C155.293 107.181 155.334 107.181 155.365 107.17L155.385 108.97H155.334L155.089 107.755C154.732 107.541 154.416 107.429 154.151 107.429C153.926 107.429 153.722 107.485 153.549 107.597C153.376 107.71 153.233 107.867 153.131 108.07C153.029 108.272 152.988 108.497 152.988 108.745C152.988 109.003 153.049 109.24 153.182 109.465C153.314 109.678 153.498 109.892 153.722 110.094C153.957 110.297 154.202 110.522 154.467 110.758C154.732 110.994 154.946 111.208 155.099 111.433C155.405 111.849 155.569 112.333 155.569 112.884C155.569 113.199 155.507 113.514 155.385 113.84C155.263 114.166 155.069 114.447 154.783 114.672C154.498 114.897 154.13 115.009 153.682 115.009C153.518 115.009 153.325 114.998 153.1 114.976C152.876 114.953 152.703 114.942 152.601 114.942C152.55 114.942 152.519 114.942 152.488 114.953C152.458 114.953 152.417 114.964 152.366 114.964C152.315 114.976 152.274 114.976 152.264 114.976L152.203 113.12H152.254V113.109ZM154.151 107.238H154.028C153.743 107.238 153.478 107.316 153.233 107.474C152.988 107.631 152.805 107.845 152.662 108.137C152.519 108.419 152.448 108.745 152.448 109.105C152.448 109.555 152.59 109.971 152.876 110.364C152.998 110.533 153.121 110.668 153.233 110.78C153.345 110.893 153.508 111.05 153.733 111.253C153.957 111.455 154.13 111.624 154.263 111.759C154.396 111.894 154.508 112.018 154.589 112.141C154.824 112.456 154.936 112.816 154.936 113.199C154.936 113.469 154.885 113.727 154.773 113.975C154.661 114.222 154.508 114.425 154.304 114.582C154.1 114.74 153.865 114.818 153.59 114.818V114.874C153.906 114.886 154.192 114.818 154.436 114.65C154.681 114.481 154.875 114.267 155.008 113.997C155.14 113.727 155.201 113.446 155.201 113.154C155.201 112.906 155.171 112.681 155.11 112.468C155.048 112.254 154.946 112.051 154.783 111.838C154.691 111.714 154.528 111.545 154.294 111.32C154.059 111.107 153.814 110.882 153.58 110.657C153.335 110.432 153.161 110.252 153.049 110.106C152.774 109.746 152.641 109.341 152.641 108.902C152.641 108.509 152.764 108.149 153.008 107.822C153.263 107.485 153.631 107.316 154.13 107.294V107.238H154.151Z" fill="white"/>
<path d="M159.057 107.203H159.781V107.26C159.597 107.282 159.454 107.518 159.342 107.957L157.619 114.93H156.874V114.863C156.976 114.829 157.068 114.762 157.139 114.649C157.211 114.537 157.282 114.357 157.333 114.12L159.057 107.203Z" fill="white"/>
<path d="M161.097 113.109L161.392 114.402C161.535 114.492 161.708 114.571 161.912 114.627C162.116 114.683 162.28 114.706 162.433 114.706C162.626 114.706 162.81 114.661 162.973 114.571C163.136 114.481 163.269 114.368 163.371 114.222C163.473 114.087 163.555 113.918 163.606 113.75C163.657 113.57 163.687 113.401 163.687 113.232C163.687 112.884 163.595 112.591 163.422 112.355C163.249 112.119 162.953 111.815 162.545 111.433C162.137 111.062 161.841 110.747 161.657 110.499C161.494 110.274 161.382 110.061 161.301 109.836C161.219 109.611 161.188 109.363 161.188 109.093C161.188 108.79 161.25 108.486 161.372 108.194C161.494 107.89 161.678 107.642 161.933 107.451C162.188 107.249 162.504 107.148 162.871 107.148C163.045 107.148 163.218 107.159 163.412 107.181C163.606 107.204 163.738 107.215 163.81 107.215C163.871 107.215 163.932 107.204 163.983 107.204C164.034 107.204 164.085 107.193 164.115 107.193C164.146 107.181 164.187 107.181 164.217 107.17L164.238 108.97H164.187L163.942 107.755C163.585 107.541 163.269 107.429 162.994 107.429C162.769 107.429 162.575 107.485 162.392 107.597C162.218 107.71 162.076 107.867 161.974 108.07C161.872 108.272 161.831 108.497 161.831 108.745C161.831 109.003 161.892 109.24 162.025 109.465C162.157 109.678 162.341 109.892 162.565 110.094C162.8 110.297 163.045 110.522 163.31 110.758C163.575 110.994 163.789 111.208 163.942 111.433C164.248 111.849 164.411 112.333 164.411 112.884C164.411 113.199 164.35 113.514 164.228 113.84C164.105 114.166 163.912 114.447 163.626 114.672C163.34 114.897 162.973 115.009 162.524 115.009C162.361 115.009 162.178 114.998 161.943 114.976C161.719 114.953 161.545 114.942 161.443 114.942C161.392 114.942 161.352 114.942 161.331 114.953C161.301 114.953 161.26 114.964 161.209 114.964C161.148 114.976 161.117 114.976 161.107 114.976L161.046 113.12H161.097V113.109ZM163.004 107.238H162.881C162.596 107.238 162.331 107.316 162.086 107.474C161.841 107.631 161.657 107.845 161.515 108.137C161.372 108.419 161.301 108.745 161.301 109.105C161.301 109.555 161.443 109.971 161.729 110.364C161.851 110.533 161.974 110.668 162.086 110.78C162.198 110.893 162.361 111.05 162.586 111.253C162.81 111.455 162.983 111.624 163.116 111.759C163.249 111.894 163.361 112.018 163.442 112.141C163.677 112.456 163.789 112.816 163.789 113.199C163.789 113.469 163.738 113.727 163.626 113.975C163.514 114.222 163.361 114.425 163.157 114.582C162.953 114.74 162.718 114.818 162.443 114.818V114.874C162.759 114.886 163.045 114.818 163.289 114.65C163.534 114.481 163.728 114.267 163.861 113.997C163.993 113.727 164.054 113.446 164.054 113.154C164.054 112.906 164.024 112.681 163.963 112.468C163.901 112.265 163.789 112.051 163.636 111.838C163.544 111.714 163.381 111.545 163.147 111.32C162.912 111.107 162.667 110.882 162.433 110.657C162.188 110.432 162.014 110.252 161.902 110.106C161.627 109.746 161.494 109.341 161.494 108.902C161.494 108.509 161.617 108.149 161.861 107.822C162.106 107.485 162.484 107.316 162.983 107.294V107.238H163.004Z" fill="white"/>
<path d="M80.8186 78.8041H89.2534C90.6099 78.8041 91.6604 78.9278 92.4253 79.1865C93.1903 79.4452 93.8124 79.8276 94.3122 80.3337C94.7303 80.7611 95.0465 81.2897 95.2607 81.9083C95.4851 82.5269 95.5973 83.168 95.5973 83.8316C95.5973 84.8214 95.3525 85.7324 94.8527 86.576C94.353 87.4195 93.6594 88.0831 92.7517 88.6005C91.8541 89.1066 90.824 89.3541 89.6613 89.3541C88.7434 89.3541 87.9173 89.2753 87.1727 89.1291V89.0054C87.3461 89.0166 87.6011 89.0279 87.9479 89.0279C88.8556 89.0279 89.6919 88.8704 90.4671 88.5443C91.2422 88.2181 91.8644 87.7232 92.3335 87.0371C92.8027 86.351 93.0373 85.5075 93.0373 84.4727C93.0373 83.2805 92.6803 82.1558 91.9561 81.0985C91.232 80.0413 90.1713 79.5239 88.7638 79.5239C88.0805 79.5239 87.4787 79.5914 86.9585 79.7264C86.8973 80.0638 86.8362 80.8961 86.775 82.2233C86.7138 83.5504 86.673 84.484 86.673 85.0126V90.9962C86.673 91.2436 86.6934 91.8172 86.724 92.6945C86.7546 93.5718 86.7954 94.3366 86.8361 94.9777C86.8769 95.6188 86.9381 96.1587 87.0197 96.5973L90.0591 97.0585L89.9265 97.2047H80.8288L80.8798 97.0247L83.8172 96.5861C83.909 95.8888 83.9702 95.1352 84.0212 94.3591C84.0722 93.5718 84.113 92.627 84.1436 91.5248C84.1844 90.4226 84.1945 89.5903 84.1945 89.0504V86.0361C84.1945 84.9789 84.164 83.7866 84.0926 82.4707C84.0314 81.1548 83.9498 80.1313 83.8478 79.3889L80.839 78.9503L80.8186 78.8041ZM84.5209 96.6986H85.3675V79.2765H84.5209V96.6986ZM89.3961 79.1078H88.9576V79.2315C89.8755 79.2765 90.671 79.5576 91.3544 80.0413C92.0377 80.5249 92.5579 81.166 92.9047 81.9421C93.2515 82.7181 93.4248 83.5504 93.4248 84.4502C93.4248 85.4737 93.2107 86.3173 92.7925 86.9809C92.3743 87.6557 91.8746 88.1281 91.283 88.4318C90.7017 88.7355 90.1203 88.9154 89.5491 88.9717V89.1179H89.7735C90.2223 89.1179 90.8036 88.9941 91.5074 88.7355C92.2111 88.4768 92.8537 87.9931 93.435 87.2621C94.0164 86.531 94.3122 85.53 94.3122 84.2365C94.3122 83.438 94.1592 82.6507 93.843 81.8521C93.5268 81.0535 92.9965 80.4012 92.2621 79.8726C91.4972 79.3664 90.5487 79.1078 89.3961 79.1078Z" fill="white"/>
<path d="M96.1276 84.6638H105.001L105.164 87.3857H105.052L104.45 85.2262C103.838 85.1924 103.318 85.1699 102.91 85.1699C101.87 85.1699 100.982 85.2487 100.268 85.4174C100.228 85.811 100.187 86.3509 100.146 87.0482C100.105 87.7343 100.085 88.263 100.085 88.6341C100.085 89.039 100.105 89.6126 100.156 90.3775C100.676 90.4449 101.268 90.4674 101.962 90.4674C102.686 90.4674 103.287 90.4337 103.767 90.3775L104.175 88.9041H104.287V92.5707H104.175L103.767 91.0073C103.451 90.9736 103.145 90.9511 102.859 90.9398C102.563 90.9286 102.267 90.9173 101.951 90.9173C101.656 90.9173 101.054 90.9511 100.146 91.0073C100.115 91.6034 100.095 92.222 100.095 92.8519C100.095 93.2905 100.115 93.9429 100.166 94.8089C100.207 95.6749 100.268 96.3385 100.33 96.8222L102.41 97.1259V97.2158H96.1378V97.1259L98.1368 96.8222C98.2184 96.2261 98.2898 95.4163 98.3408 94.3928C98.3918 93.3805 98.4122 92.5257 98.4122 91.8284V89.4439C98.4122 89.1515 98.402 88.7129 98.3816 88.128C98.3612 87.5431 98.3408 86.9808 98.3102 86.4296C98.2796 85.8785 98.2286 85.4174 98.1776 85.0575L96.148 84.7425V84.6638H96.1276ZM98.6468 96.9009H99.2179V85.0012H98.6468V96.9009Z" fill="white"/>
<path d="M108.244 92.1095V89.4664C108.244 88.7803 108.224 88.0043 108.183 87.127C108.142 86.2497 108.081 85.5636 108.02 85.0575L106.031 84.7538V84.6638H111.488C112.528 84.6638 113.344 84.8775 113.966 85.3049C114.578 85.7323 115.006 86.2159 115.251 86.7671C115.486 87.3182 115.608 87.7793 115.608 88.173C115.608 88.7129 115.486 89.1965 115.251 89.6239C115.016 90.0513 114.7 90.3887 114.313 90.6361C113.925 90.8836 113.538 91.0411 113.14 91.086V91.1198C113.517 91.2772 113.833 91.4797 114.078 91.7384C114.272 91.9408 114.496 92.222 114.741 92.5819C114.986 92.9419 115.322 93.4367 115.73 94.0666C116.138 94.6964 116.475 95.1913 116.72 95.54C116.965 95.8999 117.199 96.1811 117.413 96.406C117.882 96.8897 118.341 97.1259 118.79 97.1259V97.2158H117.342C116.536 97.2158 115.894 96.9684 115.414 96.4623C115.231 96.2711 115.037 96.0349 114.853 95.7762C114.67 95.5175 114.374 95.0788 113.976 94.4715C113.578 93.8641 113.232 93.3692 112.966 92.9756C112.691 92.5819 112.477 92.3008 112.314 92.132C112.079 91.8846 111.855 91.7271 111.661 91.6372C111.467 91.5584 111.182 91.5134 110.794 91.5134C110.447 91.5134 110.172 91.5359 109.978 91.5697C109.947 91.8734 109.927 92.222 109.927 92.5932V94.1791C109.927 94.8426 109.998 95.7312 110.131 96.8222L112.202 97.1259V97.2158H106.031V97.1259L107.979 96.8222C108.061 96.2486 108.132 95.4388 108.183 94.3928C108.224 93.3468 108.244 92.5819 108.244 92.1095ZM108.458 96.8784H109.06V85.0012H108.458V96.8784ZM109.896 88.1955V89.6014C109.896 90.0963 109.917 90.5574 109.947 90.9848C110.162 91.0186 110.478 91.0411 110.886 91.0411C111.6 91.0411 112.171 90.9173 112.599 90.6699C113.038 90.4224 113.344 90.0963 113.527 89.6914C113.711 89.2865 113.803 88.8478 113.803 88.3642C113.803 87.8918 113.711 87.4532 113.538 87.0482C113.354 86.6546 113.13 86.3059 112.844 86.036C112.558 85.7548 112.242 85.5411 111.885 85.3949C111.539 85.2374 111.192 85.1699 110.855 85.1699C110.529 85.1699 110.284 85.1924 110.1 85.2374C110.049 85.5749 110.009 86.0472 109.958 86.6658C109.927 87.2619 109.896 87.7793 109.896 88.1955ZM110.733 84.855V84.945C111.488 84.9675 112.13 85.1475 112.64 85.5186C113.15 85.8785 113.527 86.3284 113.762 86.8458C113.997 87.3744 114.109 87.8918 114.109 88.4092C114.109 89.5564 113.629 90.3775 112.66 90.8836L112.711 90.9173C113.272 90.7711 113.742 90.4449 114.109 89.9613C114.476 89.4777 114.66 88.8928 114.66 88.218C114.66 87.6893 114.558 87.217 114.364 86.7896C114.17 86.3622 113.895 86.0135 113.558 85.7211C113.221 85.4286 112.834 85.2149 112.416 85.0687C111.998 84.9225 111.569 84.8438 111.141 84.8438H110.733V84.855ZM112.885 92.4357L114.69 95.1351C115.118 95.7762 115.506 96.2261 115.843 96.496C116.179 96.7659 116.577 96.9009 117.036 96.9121V96.8222C116.597 96.6872 116.036 96.1136 115.353 95.0788L113.905 92.9418C113.599 92.4695 113.303 92.1208 113.038 91.8846C112.762 91.6484 112.436 91.4797 112.038 91.401L112.008 91.4684C112.324 91.6821 112.609 91.9971 112.885 92.4357Z" fill="white"/>
<path d="M125.358 97.2158H119.086V97.1259L121.116 96.8109C121.207 96.1023 121.279 95.2363 121.33 94.224C121.381 93.2118 121.401 92.2333 121.401 91.266V89.8263C121.401 87.8693 121.32 86.2722 121.156 85.0575L119.096 84.7538V84.6638H125.369V84.7538L123.288 85.0575C123.227 85.6086 123.186 86.1147 123.155 86.5646C123.125 87.0145 123.104 87.5544 123.084 88.1955C123.064 88.8366 123.053 89.4327 123.053 89.995V91.8846C123.053 92.2333 123.064 92.8069 123.094 93.5942C123.125 94.3815 123.155 95.0564 123.196 95.6075C123.237 96.1586 123.278 96.5635 123.319 96.8447L125.379 97.1483V97.2158H125.358ZM121.615 96.8784H122.197V85.0012H121.615V96.8784Z" fill="white"/>
<path d="M125.552 84.6638H129.122C129.418 85.3499 129.673 85.9123 129.887 86.3397C130.101 86.7783 130.356 87.2844 130.652 87.8693L132.987 92.3345C133.569 93.4142 134.048 94.2128 134.436 94.7527C134.762 94.2128 135.262 93.2568 135.966 91.8734L138.087 87.7456C138.699 86.5534 139.158 85.5186 139.484 84.6638H143.034V84.7538L140.831 85.0687C140.8 85.5749 140.78 86.0697 140.78 86.5759C140.78 87.1045 140.831 88.173 140.922 89.8038C141.024 91.4235 141.137 92.9418 141.279 94.3478C141.422 95.7537 141.545 96.5747 141.667 96.8334L143.197 97.1371V97.2271H137.506V97.1371L139.484 96.8334C139.525 96.3948 139.556 95.8099 139.556 95.0788C139.556 94.6739 139.546 94.1453 139.515 93.493C139.484 92.8406 139.444 92.0871 139.382 91.2435C139.321 90.3887 139.25 89.6126 139.168 88.8928C139.087 88.173 139.005 87.6893 138.934 87.4307C138.668 87.8581 138.403 88.3529 138.118 88.9041L134.885 95.1463C134.375 96.1698 134.038 96.9009 133.865 97.3396H133.752C133.64 97.0809 133.436 96.6535 133.151 96.0799C132.865 95.5062 132.641 95.0564 132.467 94.7302L129.765 89.5564C129.306 88.6791 128.928 87.9705 128.622 87.4419C128.581 87.6669 128.53 88.1955 128.449 89.0053C128.367 89.8151 128.296 90.6924 128.235 91.6484C128.163 92.5932 128.112 93.403 128.071 94.0778C128.031 94.7414 128.02 95.27 128.02 95.6525C128.02 95.9224 128.031 96.3161 128.051 96.8222L129.632 97.1371V97.2271H125.552V97.1371L127.133 96.8222C127.215 96.586 127.317 95.7874 127.449 94.449C127.582 93.0993 127.694 91.7271 127.796 90.31C127.898 88.8928 127.949 87.8693 127.949 87.2282C127.949 87.0033 127.939 86.6658 127.918 86.1935C127.755 85.856 127.449 85.4849 126.99 85.0912L125.573 84.7763V84.6638H125.552ZM127.623 85.0012L133.62 96.4398L133.916 95.8549L128.204 85.0012H127.623ZM139.719 85.5636L139.24 86.5646L139.974 96.8784H140.576L139.76 85.5636H139.719Z" fill="white"/>
<path d="M143.38 84.7538V84.6638H152.223L152.427 87.3294H152.295L151.693 85.2374C151.224 85.2037 150.693 85.1812 150.112 85.1812C149.041 85.1812 148.184 85.2599 147.532 85.4174C147.419 86.3397 147.368 87.3969 147.368 88.5891C147.368 89.3315 147.389 89.9388 147.43 90.4C148.307 90.4449 148.857 90.4787 149.102 90.4787C149.724 90.4787 150.377 90.4449 151.04 90.3662L151.417 88.9041H151.56V92.5594H151.417L151.03 91.0186C150.551 90.9623 150.02 90.9286 149.439 90.9286C148.704 90.9286 148.041 90.9623 147.45 91.0298C147.379 91.6934 147.358 92.3457 147.389 92.9756C147.399 93.7854 147.409 94.4602 147.43 94.9889C147.45 95.5175 147.481 95.9786 147.521 96.3498C148.194 96.5635 149.082 96.6647 150.173 96.6647C150.805 96.6647 151.336 96.6422 151.764 96.586L152.427 94.5165H152.539L152.356 97.2046H143.411V97.1146L145.4 96.8109C145.441 96.5747 145.481 96.2261 145.522 95.7424C145.563 95.2588 145.594 94.7302 145.614 94.1228C145.645 93.5267 145.665 93.0318 145.675 92.6269C145.685 92.222 145.696 91.8734 145.696 91.5697V89.4102C145.696 89.1403 145.685 88.7466 145.665 88.2405C145.645 87.7343 145.624 87.2057 145.594 86.6658C145.563 86.126 145.512 85.5861 145.451 85.035L143.38 84.7538ZM145.9 96.8784H146.471V85.0012H145.9V96.8784Z" fill="white"/>
<path d="M155.528 92.1095V89.4664C155.528 88.7803 155.507 88.0043 155.466 87.127C155.426 86.2497 155.364 85.5636 155.303 85.0575L153.314 84.7538V84.6638H158.771C159.801 84.6638 160.627 84.8775 161.249 85.3049C161.861 85.7323 162.29 86.2159 162.535 86.7671C162.769 87.3182 162.892 87.7793 162.892 88.173C162.892 88.7129 162.769 89.1965 162.535 89.6239C162.3 90.0513 161.984 90.3887 161.596 90.6361C161.209 90.8836 160.821 91.0411 160.423 91.086V91.1198C160.801 91.2772 161.117 91.4797 161.362 91.7384C161.555 91.9408 161.78 92.222 162.025 92.5819C162.269 92.9419 162.606 93.4367 163.014 94.0666C163.422 94.6964 163.748 95.1913 164.003 95.54C164.258 95.8887 164.483 96.1811 164.697 96.406C165.166 96.8897 165.625 97.1259 166.074 97.1259V97.2158H164.625C163.82 97.2158 163.177 96.9684 162.698 96.4623C162.504 96.2711 162.32 96.0349 162.137 95.7762C161.953 95.5175 161.657 95.0788 161.26 94.4715C160.862 93.8641 160.525 93.3692 160.25 92.9756C159.975 92.5819 159.76 92.3008 159.597 92.132C159.363 91.8846 159.138 91.7271 158.944 91.6372C158.751 91.5584 158.455 91.5134 158.077 91.5134C157.731 91.5134 157.455 91.5359 157.262 91.5697C157.231 91.8734 157.211 92.222 157.211 92.5932V94.1791C157.211 94.8426 157.282 95.7312 157.415 96.8222L159.485 97.1259V97.2158H153.314V97.1259L155.263 96.8222C155.344 96.2486 155.415 95.4388 155.466 94.3928C155.497 93.3468 155.528 92.5819 155.528 92.1095ZM155.732 96.8784H156.333V85.0012H155.732V96.8784ZM157.18 88.1955V89.6014C157.18 90.0963 157.2 90.5574 157.231 90.9848C157.445 91.0186 157.761 91.0411 158.169 91.0411C158.873 91.0411 159.454 90.9173 159.883 90.6699C160.321 90.4224 160.627 90.0963 160.811 89.6914C160.994 89.2865 161.086 88.8478 161.086 88.3642C161.086 87.8918 160.994 87.4532 160.821 87.0482C160.637 86.6546 160.403 86.3059 160.128 86.036C159.842 85.7548 159.526 85.5411 159.179 85.3949C158.822 85.2374 158.485 85.1699 158.149 85.1699C157.823 85.1699 157.578 85.1924 157.394 85.2374C157.343 85.5749 157.302 86.0472 157.262 86.6658C157.2 87.2619 157.18 87.7793 157.18 88.1955ZM158.006 84.855V84.945C158.761 84.9675 159.403 85.1475 159.913 85.5186C160.423 85.8785 160.801 86.3284 161.025 86.8458C161.26 87.3744 161.372 87.8918 161.372 88.4092C161.372 89.5564 160.892 90.3775 159.924 90.8836L159.975 90.9173C160.535 90.7711 161.005 90.4449 161.372 89.9613C161.739 89.4777 161.923 88.8928 161.923 88.218C161.923 87.6893 161.821 87.217 161.627 86.7896C161.423 86.3622 161.158 86.0135 160.821 85.7211C160.485 85.4399 160.097 85.2149 159.679 85.0687C159.261 84.9225 158.832 84.8438 158.414 84.8438H158.006V84.855ZM160.168 92.4357L161.974 95.1351C162.402 95.7762 162.79 96.2261 163.126 96.496C163.463 96.7659 163.86 96.9009 164.319 96.9121V96.8222C163.881 96.6872 163.32 96.1136 162.637 95.0788L161.188 92.9418C160.882 92.4695 160.586 92.1208 160.321 91.8846C160.046 91.6484 159.72 91.4797 159.322 91.401L159.291 91.4684C159.597 91.6821 159.893 91.9971 160.168 92.4357Z" fill="white"/>
<path d="M73.8015 91.6486L72.649 91.8847C72.5266 92.3571 72.4654 92.7845 72.4654 93.167C72.4654 93.4706 72.4552 93.7406 72.4348 93.9543C72.4144 94.1792 72.3226 94.4266 72.1595 94.7191C72.496 95.0227 72.751 95.2477 72.9142 95.4052C73.0876 95.5514 73.2814 95.6976 73.5057 95.8326C73.7199 95.9675 73.9137 96.035 74.0769 96.035C74.1585 96.035 74.2503 96.0125 74.3421 95.9675C74.4237 95.9225 74.4951 95.8438 74.5257 95.7426H74.6073C74.5767 96.0688 74.4543 96.3162 74.2299 96.4962C74.0055 96.6649 73.7403 96.7548 73.4445 96.7548C73.0978 96.7548 72.802 96.6874 72.5266 96.5524C72.2614 96.4174 71.8943 96.1587 71.4455 95.7538C71.1089 96.0575 70.7316 96.2937 70.3134 96.4737C69.885 96.6536 69.3853 96.7436 68.7937 96.7436C68.1002 96.7436 67.4984 96.6536 66.9986 96.4624C66.4989 96.2712 66.1113 96.035 65.8155 95.7313C65.5198 95.4389 65.3158 95.124 65.1934 94.7978C65.071 94.4716 65.0098 94.168 65.0098 93.8868C65.0098 93.1782 65.2036 92.6046 65.5912 92.1659C65.9787 91.7273 66.5295 91.2886 67.2536 90.8612C67.1108 90.5913 66.9884 90.3551 66.8967 90.1639C66.8049 89.9727 66.7335 89.7478 66.6825 89.5003C66.6213 89.2529 66.6009 88.9604 66.6009 88.6455C66.6009 88.1394 66.7131 87.7007 66.9273 87.3296C67.1414 86.9584 67.4372 86.6772 67.8146 86.486C68.1818 86.2948 68.5897 86.1936 69.0283 86.1936C69.6402 86.1936 70.1196 86.3623 70.4562 86.6885C70.7928 87.0147 70.9661 87.4421 70.9661 87.9369C70.9661 88.5555 70.752 89.0617 70.3236 89.4553C69.8952 89.849 69.3139 90.2201 68.5897 90.5801C68.9365 91.1087 69.3037 91.5923 69.7014 92.0647C70.0992 92.5259 70.6092 93.0995 71.2517 93.7631V93.122C71.2517 92.6496 71.1905 92.2334 71.0681 91.8623L70.2522 91.6148V91.5473H73.8219V91.6486H73.8015ZM67.3556 91.0862L67.3046 90.9962C66.7335 91.3561 66.2949 91.6935 65.9991 92.0197C65.7033 92.3459 65.4994 92.6608 65.3974 92.9532C65.2954 93.2569 65.2444 93.5606 65.2444 93.8643C65.2444 94.3592 65.3872 94.8091 65.6625 95.214C65.9481 95.6189 66.3459 95.945 66.8763 96.2037C67.4066 96.4512 67.9982 96.5974 68.6509 96.6086V96.5187C68.0696 96.4737 67.5494 96.3162 67.1108 96.035C66.6621 95.7538 66.3255 95.3939 66.0807 94.9665C65.8359 94.5391 65.7135 94.1005 65.7135 93.6506C65.7135 93.3694 65.7645 93.0882 65.8665 92.7845C65.9685 92.4921 66.1419 92.1884 66.3969 91.8847C66.6417 91.5923 66.968 91.3224 67.3556 91.0862ZM67.4882 91.2886C67.2332 91.4461 66.9885 91.7048 66.7743 92.0535C66.5601 92.4021 66.4479 92.8408 66.4479 93.3357C66.4479 93.7406 66.5193 94.1342 66.6519 94.4941C66.7845 94.854 66.9681 95.169 67.2026 95.4389C67.4372 95.7088 67.6922 95.9113 67.988 96.0575C68.2837 96.2037 68.5795 96.2712 68.8855 96.2712C69.2425 96.2712 69.5994 96.17 69.9564 95.9788C70.3134 95.7763 70.599 95.5176 70.8233 95.169C70.0992 94.4379 69.4669 93.7743 68.9365 93.1894C68.4163 92.6158 67.9268 91.9747 67.4882 91.2886ZM71.4251 91.8398V93.6506C71.4251 94.1342 71.3741 94.4941 71.2619 94.7416C69.9156 93.4256 68.8753 92.2334 68.1512 91.1649C67.427 90.0964 67.0598 89.1404 67.0598 88.2856C67.0598 88.0157 67.0904 87.7795 67.1516 87.5883C67.2128 87.3971 67.2944 87.2171 67.4066 87.0484H67.3148C67.1414 87.2284 67.0088 87.4645 66.9069 87.7457C66.8049 88.0382 66.7641 88.3531 66.7641 88.7018C66.7641 89.2754 66.9477 89.9165 67.3148 90.6138C67.682 91.3111 68.1818 92.031 68.8141 92.762C69.4363 93.4931 70.2012 94.2917 71.0783 95.1465C70.7316 95.7313 70.2012 96.1362 69.5077 96.3612L69.5178 96.4287C69.9054 96.3274 70.2318 96.2037 70.5072 96.035C70.7825 95.8775 71.0477 95.6526 71.3129 95.3714C71.7923 95.7876 72.1798 96.1025 72.4756 96.2937C72.7714 96.4849 73.0876 96.5861 73.4344 96.5861C73.5771 96.5861 73.7505 96.5411 73.9545 96.4624V96.3949H73.7811C73.5669 96.3949 73.3426 96.3387 73.1284 96.2375C72.9142 96.125 72.7 95.99 72.496 95.8213C72.292 95.6526 71.9861 95.3827 71.5781 95.0115C71.7923 94.5954 71.9045 94.0892 71.9045 93.4931V91.8285H71.4251V91.8398ZM68.7427 86.666C68.4265 86.666 68.1512 86.7897 67.9166 87.0372C67.682 87.2846 67.5698 87.622 67.5698 88.0607C67.5698 88.3643 67.6412 88.713 67.784 89.0954C67.9268 89.4778 68.1104 89.8377 68.3347 90.1752C68.6407 89.9952 68.9059 89.7703 69.1201 89.5116C69.3343 89.2529 69.4975 88.9829 69.6097 88.6905C69.7218 88.3981 69.7728 88.1169 69.7728 87.8245C69.7728 87.5658 69.7218 87.3521 69.63 87.1721C69.5382 86.9922 69.4159 86.8684 69.2629 86.7897C69.0997 86.711 68.9263 86.666 68.7427 86.666ZM69.2731 86.5535V86.6097C69.4057 86.666 69.5281 86.7447 69.6402 86.8684C69.7524 86.9922 69.8442 87.1384 69.9054 87.3071C69.9666 87.4758 69.9972 87.6558 69.9972 87.847C69.9972 88.2969 69.8544 88.758 69.5587 89.2079C69.2731 89.669 68.8753 90.0402 68.3755 90.3326L68.4163 90.4001C69.0079 90.0852 69.4771 89.714 69.834 89.2866C70.191 88.848 70.3644 88.4093 70.3644 87.9707C70.3644 87.5883 70.2522 87.2733 70.0278 87.0259C69.8136 86.7897 69.5587 86.6322 69.2731 86.5535Z" fill="white"/>
<path d="M0.24472 78.0054V77.8817H13.4629L13.7689 81.8633H13.5751L12.6776 78.7365C11.9738 78.6803 11.1885 78.6578 10.3011 78.6578C8.69986 78.6578 7.41477 78.7703 6.43564 79.0064C6.27246 80.3899 6.19086 81.9757 6.19086 83.7528C6.19086 84.8663 6.22146 85.7661 6.29285 86.4522C7.59835 86.5309 8.43469 86.5646 8.79166 86.5646C9.72999 86.5646 10.6887 86.5084 11.6882 86.3959L12.2492 84.214H12.4634V89.6802H12.2492L11.6678 87.3745C10.9437 87.2845 10.1583 87.2507 9.28122 87.2507C8.1899 87.2507 7.19038 87.2957 6.30305 87.4082C6.19086 88.398 6.16026 89.3652 6.20106 90.3213C6.22146 91.536 6.24185 92.537 6.26225 93.3243C6.28265 94.1116 6.33365 94.7977 6.39484 95.3713C7.40457 95.6862 8.73047 95.8437 10.3725 95.8437C11.3211 95.8437 12.1064 95.81 12.7592 95.7312L13.7485 92.6382H13.9219L13.6465 96.6535H0.28551V96.5298L3.25349 96.0799C3.32488 95.7312 3.37588 95.1914 3.43707 94.4828C3.48807 93.7629 3.53906 92.9531 3.57986 92.0646C3.62066 91.1761 3.65126 90.4225 3.66146 89.8264C3.68185 89.219 3.68185 88.6904 3.68185 88.2405V85.0125C3.68185 84.5964 3.67165 84.0228 3.64105 83.2692C3.62065 82.5156 3.57986 81.7283 3.52886 80.9185C3.47786 80.1087 3.40647 79.2989 3.31468 78.4778L0.24472 78.0054ZM4.01843 96.1474H4.87516V78.3766H4.01843V96.1474Z" fill="white"/>
<path d="M15.972 84.1802V84.0902H22.2445V84.1802L20.1842 84.4839C20.1128 85.035 20.0516 85.7886 20.0006 86.7221C19.9497 87.6669 19.9293 88.4879 19.9293 89.1852V92.8744C19.9293 93.7629 19.9701 94.6852 20.0618 95.6412C21.0104 95.9449 21.9895 96.1024 22.989 96.1024C23.4786 96.1024 23.9273 96.0686 24.3353 96.0124C24.7433 95.9561 25.0289 95.8999 25.2022 95.8549L26.0692 93.5155H26.1916L25.804 96.6422H15.9618V96.5522L17.9404 96.2486C18.0118 95.9786 18.0628 95.4837 18.1138 94.7864C18.1648 94.0891 18.1954 93.358 18.226 92.6157C18.2566 91.8621 18.2668 91.3335 18.2668 91.0298V88.8703C18.2668 88.3979 18.2566 87.8581 18.2362 87.2395C18.2158 86.6209 18.1852 86.081 18.1546 85.6198C18.124 85.1587 18.0832 84.7763 18.0322 84.4839L15.972 84.1802ZM18.4912 96.3048H19.0725V84.4051H18.4912V96.3048Z" fill="white"/>
<path d="M33.586 96.6422H27.3135V96.5522L29.3432 96.2373C29.4349 95.5287 29.5063 94.6627 29.5573 93.6504C29.6083 92.6382 29.6287 91.6597 29.6287 90.6924V89.2527C29.6287 87.2957 29.5471 85.6986 29.3738 84.4839L27.3135 84.1802V84.0902H33.586V84.1802L31.5156 84.4839C31.4544 85.035 31.4136 85.5411 31.383 85.991C31.3524 86.4409 31.332 86.9808 31.3116 87.6219C31.2912 88.263 31.281 88.8591 31.281 89.4214V91.3222C31.281 91.6709 31.2912 92.2445 31.3218 93.0318C31.3524 93.8304 31.383 94.494 31.4238 95.0451C31.4646 95.5962 31.5054 96.0011 31.5462 96.2823L33.6064 96.586V96.6422H33.586ZM29.8429 96.3048H30.4243V84.4276H29.8429V96.3048Z" fill="white"/>
<path d="M41.5515 83.9667L45.1417 92.8183C45.6108 93.9768 46.1514 95.1128 46.7735 96.26L48.1504 96.5637V96.6537H42.2859V96.5637L44.5399 96.26C44.4583 95.6976 44.3053 95.079 44.0809 94.4155C43.8566 93.7519 43.6118 93.167 43.3364 92.6834H38.1348C37.9104 93.257 37.737 93.7406 37.5942 94.1005C37.4617 94.4717 37.3291 94.8541 37.2067 95.259C37.0843 95.6639 37.0027 95.9901 36.9619 96.26L39.1343 96.5637V96.6537H34.4937V96.5637L36.0236 96.26C36.3907 95.5964 36.7375 94.8653 37.0435 94.0668L40.8886 83.9667H41.5515ZM40.6744 86.3736C40.5214 86.6773 40.3276 87.1159 40.0829 87.7008C39.8381 88.2856 39.6137 88.8255 39.4199 89.3317C39.2159 89.8378 39.0119 90.3777 38.7978 90.9625C38.5836 91.5361 38.4408 91.9185 38.3694 92.0985C38.6958 92.1435 39.0731 92.1772 39.5117 92.1885C39.9503 92.211 40.3582 92.211 40.756 92.211C41.7249 92.211 42.5205 92.166 43.1426 92.0872C42.9284 91.4461 42.5715 90.5239 42.0717 89.3317C41.5413 88.1507 41.0824 87.1609 40.6744 86.3736ZM40.807 85.6538L45.1111 96.305H45.6618L41.0722 84.9339L40.807 85.6538Z" fill="white"/>
<path d="M49.5273 93.6391L50.1597 95.7423C50.4758 95.8885 50.843 96.0123 51.2714 96.1023C51.6997 96.1922 52.0669 96.2372 52.3729 96.226C52.791 96.226 53.1684 96.1472 53.5152 96.001C53.862 95.8548 54.1475 95.6636 54.3617 95.4386C54.5759 95.2137 54.7493 94.955 54.8615 94.6626C54.9737 94.3701 55.0349 94.089 55.0349 93.819C55.0349 93.2567 54.8513 92.773 54.4739 92.3906C54.1068 91.997 53.4846 91.5021 52.6075 90.8947C51.7405 90.2874 51.098 89.7812 50.7104 89.3763C50.3738 89.0164 50.1189 88.6565 49.9557 88.2966C49.7925 87.9367 49.7109 87.5318 49.7109 87.0819C49.7109 86.587 49.8435 86.1034 50.0985 85.6197C50.3534 85.1361 50.7614 84.7312 51.302 84.405C51.8425 84.0788 52.5055 83.9214 53.301 83.9214C53.658 83.9214 54.0456 83.9439 54.4433 83.9776C54.8513 84.0114 55.1267 84.0339 55.2797 84.0339C55.4123 84.0339 55.5346 84.0226 55.657 84.0226C55.7692 84.0226 55.8712 84.0114 55.9324 84.0114C56.0038 84.0001 56.0752 83.9889 56.1466 83.9776L56.1976 86.9132H56.0854L55.5652 84.9336C54.7901 84.585 54.1271 84.4163 53.556 84.4163C53.0766 84.4163 52.6483 84.5063 52.2709 84.6975C51.8935 84.8774 51.5977 85.1361 51.3836 85.4623C51.1694 85.7884 51.0674 86.1484 51.0674 86.5533C51.0674 86.9807 51.2102 87.3631 51.4958 87.7117C51.7813 88.0604 52.1689 88.4091 52.6585 88.7465C53.148 89.0839 53.6784 89.4438 54.2393 89.815C54.8003 90.1974 55.2491 90.5573 55.5856 90.906C56.2486 91.5808 56.575 92.3681 56.575 93.2679C56.575 93.7741 56.4526 94.2914 56.1976 94.82C55.9426 95.3487 55.5142 95.8098 54.9125 96.181C54.3107 96.5521 53.5254 96.7321 52.5769 96.7321C52.2403 96.7321 51.8323 96.7096 51.3428 96.6759C50.8634 96.6309 50.5064 96.6196 50.2718 96.6196C50.1699 96.6196 50.0883 96.6196 50.0271 96.6309C49.9659 96.6309 49.8741 96.6421 49.7619 96.6534C49.6395 96.6646 49.5681 96.6646 49.5477 96.6646L49.4151 93.6503H49.5273V93.6391ZM53.5866 84.1126H53.3214C52.7095 84.1126 52.1485 84.2363 51.6385 84.495C51.1286 84.7424 50.7206 85.1024 50.4146 85.5635C50.1087 86.0246 49.9659 86.5533 49.9659 87.1269C49.9659 87.8579 50.2718 88.5328 50.8838 89.1626C51.1592 89.4326 51.404 89.6575 51.6385 89.8375C51.8731 90.0174 52.2301 90.2761 52.7095 90.6136C53.1888 90.951 53.5662 91.2209 53.8518 91.4346C54.1373 91.6483 54.3719 91.8508 54.5555 92.042C55.0553 92.5593 55.3001 93.133 55.3001 93.7628C55.3001 94.2015 55.1879 94.6176 54.9533 95.0225C54.7187 95.4274 54.3923 95.7536 53.9538 96.0123C53.5152 96.271 53.0052 96.3947 52.4239 96.4059V96.4959C53.097 96.5184 53.6988 96.3947 54.2291 96.1247C54.7595 95.8548 55.1573 95.5061 55.4428 95.0675C55.7182 94.6288 55.861 94.1677 55.861 93.7066C55.861 93.3017 55.7998 92.9305 55.6672 92.6043C55.5448 92.2669 55.3103 91.9295 54.9737 91.5808C54.7799 91.3784 54.4331 91.1084 53.9334 90.7485C53.4336 90.3886 52.9236 90.0287 52.4035 89.6688C51.8935 89.3089 51.5162 89.0052 51.2714 88.7802C50.69 88.1841 50.4044 87.5318 50.4044 86.8232C50.4044 86.1933 50.6696 85.6085 51.2 85.0686C51.7303 84.5287 52.5259 84.2363 53.5866 84.2138V84.1126Z" fill="white"/>
<path d="M166.655 101.186H0V102.468H166.655V101.186Z" fill="white"/>
</svg>
